<svg  viewBox="0 0 20 20" fill="none" xmlns="http://www.w3.org/2000/svg">
<path d="M18.0637 4.64375L11.8137 17.7688C11.7796 17.8449 11.7308 17.9134 11.6699 17.9703C11.609 18.0272 11.5373 18.0714 11.4591 18.1002C11.3809 18.129 11.2977 18.1419 11.2144 18.1381C11.1311 18.1343 11.0495 18.1138 10.9742 18.078C10.899 18.0421 10.8316 17.9916 10.7762 17.9293C10.7208 17.8671 10.6784 17.7943 10.6515 17.7154C10.6246 17.6365 10.6137 17.5531 10.6196 17.4699C10.6254 17.3867 10.6478 17.3056 10.6855 17.2312L12.9387 12.5H2.49959C2.37803 12.5001 2.2591 12.4647 2.15734 12.3982C2.05558 12.3317 1.97542 12.237 1.92666 12.1257C1.87791 12.0143 1.86269 11.8912 1.88286 11.7713C1.90302 11.6514 1.95771 11.54 2.04021 11.4508L5.36521 7.84922L2.07693 4.83594C1.984 4.75084 1.91897 4.63965 1.89035 4.51694C1.86174 4.39423 1.87088 4.26573 1.91658 4.14831C1.96229 4.03089 2.04241 3.93002 2.14645 3.85894C2.25049 3.78786 2.37359 3.74989 2.49959 3.75H17.4996C17.6051 3.75003 17.7089 3.77678 17.8013 3.82773C17.8936 3.87869 17.9716 3.95221 18.0279 4.04143C18.0842 4.13065 18.117 4.23267 18.1233 4.33799C18.1295 4.44331 18.109 4.5485 18.0637 4.64375Z" fill="currentColor"/>
</svg>
