<svg viewBox="0 0 16 16" fill="none" xmlns="http://www.w3.org/2000/svg">
  <path d="M3.00488 10.7305C2.56167 10.7462 2.23333 10.9199 2.01562 11.1689C1.79715 11.4191 1.68765 11.7487 1.68945 12.0781C1.69133 12.4073 1.80385 12.7346 2.02441 12.9814C2.24459 13.2277 2.57501 13.3958 3.01758 13.4053C3.46502 13.3957 3.79663 13.2254 4.0166 12.9766C4.2373 12.7268 4.34814 12.3961 4.34668 12.0645C4.34514 11.7327 4.23189 11.4017 4.00879 11.1533C3.78643 10.9058 3.45252 10.737 3.00488 10.7305ZM7.65234 10.7305C7.21237 10.7494 6.88599 10.9238 6.66992 11.1729C6.45308 11.4229 6.34565 11.751 6.34766 12.0791C6.34972 12.4073 6.46172 12.734 6.68164 12.9805C6.90076 13.2258 7.22902 13.3936 7.66895 13.4053C9.45183 13.3635 9.43909 10.7521 7.65234 10.7305ZM12.3086 10.7305C11.8675 10.7515 11.5403 10.9263 11.3232 11.1748C11.1054 11.4243 10.9965 11.7514 10.998 12.0781C10.9997 12.4046 11.1113 12.7293 11.3311 12.9756C11.5504 13.2212 11.8798 13.3906 12.3213 13.4053C12.7687 13.3957 13.1003 13.2254 13.3203 12.9766C13.541 12.7268 13.6518 12.3961 13.6504 12.0645C13.6488 11.7327 13.5356 11.4017 13.3125 11.1533C13.0901 10.9058 12.7562 10.737 12.3086 10.7305ZM9.22363 10.7354C9.46449 11.0128 9.62486 11.3514 9.68555 11.7129H10.3037C10.3672 11.3503 10.5251 11.0135 10.7666 10.7354H9.22363ZM4.57129 10.7354C4.81225 11.0128 4.97249 11.3514 5.0332 11.7129H5.65234C5.71584 11.3504 5.87294 11.0135 6.11426 10.7354H4.57129ZM1.71191 7.02344C1.69831 7.09991 1.68884 7.21725 1.68359 7.35938C1.67768 7.51968 1.67623 7.70799 1.67676 7.89746C1.67781 8.27376 1.68597 8.65706 1.67969 8.82617L1.68652 8.95898C1.75631 9.60893 2.36099 10.0772 3.03027 10.0156H4.14551C4.25376 9.68428 4.2814 9.34131 4.24512 8.99707L4.2041 8.77441C4.08387 8.2627 3.79054 7.8055 3.37012 7.48242C2.89773 7.11952 2.30285 6.95517 1.71191 7.02344ZM2.52246 5.22949L2.52051 5.22852C2.50099 5.31694 2.45702 5.40522 2.40234 5.49219C2.34776 5.57897 2.28069 5.66812 2.21387 5.75879C2.09038 5.92634 1.96928 6.10186 1.90527 6.29297C3.83803 6.21859 5.38322 8.13699 4.8916 10.0156H12.7861V9.53711L12.7832 9.42871C12.745 8.89003 12.3948 8.42014 11.8789 8.23535L11.876 8.23438C11.8252 8.21102 11.5552 8.11164 11.1738 7.97363C10.7943 7.83627 10.3071 7.6615 9.8252 7.48535C9.34338 7.30923 8.86592 7.13197 8.50586 6.99121C8.32604 6.92091 8.17439 6.85936 8.06641 6.81152C8.01251 6.78764 7.96811 6.7661 7.93652 6.74902C7.92098 6.74061 7.90697 6.73302 7.89648 6.72559C7.89554 6.72491 7.8945 6.72433 7.89355 6.72363L6.96289 7.0293H6.96191C6.85333 7.06345 6.75491 7.04808 6.67676 7.00098C6.59956 6.95437 6.54421 6.87833 6.5166 6.79492C6.489 6.71146 6.48806 6.61739 6.52344 6.53418C6.55924 6.45008 6.63103 6.38019 6.74121 6.34375L7.27637 6.16699C7.14475 5.99815 7.03381 5.81272 6.95508 5.61328H6.38281C6.26742 5.61328 6.17741 5.56874 6.11719 5.5C6.05782 5.43211 6.0293 5.34273 6.0293 5.25488C6.02938 5.1671 6.05796 5.07804 6.11719 5.00977C6.17725 4.94059 6.26648 4.89475 6.38184 4.89355H6.78613C6.78323 4.85283 6.77878 4.79727 6.77734 4.73438C6.77516 4.63868 6.77468 4.52212 6.77441 4.40527C6.77396 4.20618 6.77592 4.00371 6.77637 3.90332H5.6709C5.47423 3.90314 5.31171 3.74061 5.31152 3.54395C5.31152 3.51551 5.30904 3.2626 5.30957 3.0166C5.30984 2.89325 5.31128 2.77021 5.31348 2.67676C5.31457 2.63033 5.31554 2.59064 5.31738 2.56152C5.31746 2.56025 5.3173 2.55886 5.31738 2.55762H2.52246V5.22949ZM6.77148 1.70312C6.34324 1.79561 6.03129 2.17606 6.03125 2.625V3.18359H6.77148V1.70312ZM7.49512 4.74219C7.4945 5.0694 7.59506 5.38883 7.78223 5.65723C7.96961 5.92575 8.23541 6.1308 8.54297 6.24316L12.124 7.55957L12.2725 7.62109C12.6136 7.77802 12.9079 8.02361 13.124 8.33301C13.3708 8.68629 13.504 9.10619 13.5059 9.53711V9.53809L13.498 10.3838C13.7201 10.5395 13.9098 10.737 14.0557 10.9658C14.1681 11.1423 14.253 11.3349 14.3076 11.5361L14.3525 11.7402V11.7422C14.4395 12.411 14.2623 12.9552 13.9375 13.3525C13.6132 13.7493 13.1431 13.9975 12.6475 14.0781C12.152 14.1586 11.6283 14.0725 11.1963 13.7979C10.771 13.5275 10.4386 13.0758 10.3066 12.4287H9.68457C9.28247 14.6671 6.05133 14.6723 5.65332 12.4287H5.0332C4.75804 14.2077 2.29756 14.7423 1.30957 13.2217V13.2207C1.15895 12.9976 1.05294 12.7471 0.999023 12.4834C0.945028 12.2191 0.943751 11.9465 0.995117 11.6816C1.04651 11.4167 1.14987 11.1645 1.29883 10.9395C1.43635 10.7317 1.61146 10.5524 1.81348 10.4072C1.28181 10.056 0.959961 9.46377 0.959961 8.82617V7.43359C0.961559 6.57763 1.26005 5.74942 1.80273 5.08789V2.19824C1.80273 2.00136 1.96524 1.83795 2.16211 1.83789H5.51953C5.82925 1.24391 6.47602 0.914928 7.13867 0.961914L7.1377 0.962891C7.2564 0.966505 7.34135 1.00699 7.39844 1.07617C7.45411 1.14368 7.47898 1.23305 7.49023 1.32422C7.5015 1.41561 7.49919 1.51448 7.49609 1.60547C7.49294 1.69821 7.48913 1.78135 7.49512 1.84668L7.49609 1.85059H7.49512V4.74219Z" fill="currentColor" stroke="currentColor" stroke-width="0.0846561"/>
</svg>
