<svg viewBox="0 0 16 16" fill="none" xmlns="http://www.w3.org/2000/svg">
  <path d="M15.9569 12.2969L11.9569 3.29688C11.9176 3.20851 11.8535 3.13343 11.7724 3.08074C11.6913 3.02805 11.5967 3 11.5 3H4.49999C4.40413 3.00016 4.31032 3.02787 4.22976 3.07984C4.14921 3.13181 4.08528 3.20585 4.04562 3.29312C4.04544 3.29437 4.04544 3.29563 4.04562 3.29688V3.30437L0.0431191 12.2969C0.00927441 12.373 -0.00501231 12.4564 0.00155705 12.5394C0.00812641 12.6225 0.0353436 12.7026 0.0807357 12.7724C0.126128 12.8423 0.188256 12.8997 0.261475 12.9394C0.334695 12.9792 0.416684 13 0.499994 13H15.5C15.5833 13 15.6653 12.9792 15.7385 12.9394C15.8117 12.8997 15.8739 12.8423 15.9193 12.7724C15.9646 12.7026 15.9919 12.6225 15.9984 12.5394C16.005 12.4564 15.9907 12.373 15.9569 12.2969ZM3.99999 12H1.26937L3.99999 5.85625V12ZM4.99999 12V5.85625L7.73062 12H4.99999ZM8.82499 12L5.26937 4H11.175L14.7306 12H8.82499Z" fill="currentColor"/>
</svg>
