<svg viewBox="0 0 16 16" fill="none" xmlns="http://www.w3.org/2000/svg">
<path d="M9.50054 5.5C9.8961 5.5 10.2828 5.3827 10.6117 5.16294C10.9406 4.94318 11.1969 4.63082 11.3483 4.26537C11.4997 3.89992 11.5393 3.49778 11.4621 3.10982C11.3849 2.72186 11.1945 2.36549 10.9148 2.08579C10.6351 1.80608 10.2787 1.6156 9.89072 1.53843C9.50276 1.46126 9.10063 1.50087 8.73518 1.65224C8.36972 1.80362 8.05737 2.05996 7.8376 2.38886C7.61784 2.71776 7.50054 3.10444 7.50054 3.5C7.50054 4.03043 7.71126 4.53914 8.08633 4.91421C8.4614 5.28929 8.97011 5.5 9.50054 5.5ZM9.50054 2.5C9.69832 2.5 9.89166 2.55865 10.0561 2.66853C10.2206 2.77841 10.3487 2.93459 10.4244 3.11732C10.5001 3.30004 10.5199 3.50111 10.4813 3.69509C10.4427 3.88907 10.3475 4.06726 10.2076 4.20711C10.0678 4.34696 9.88961 4.4422 9.69563 4.48079C9.50165 4.51937 9.30058 4.49957 9.11786 4.42388C8.93513 4.34819 8.77895 4.22002 8.66907 4.05557C8.55919 3.89112 8.50054 3.69778 8.50054 3.5C8.50054 3.23478 8.6059 2.98043 8.79344 2.79289C8.98097 2.60536 9.23533 2.5 9.50054 2.5ZM13.7074 8.7925C13.6693 8.81 13.2393 8.9975 12.478 8.9975C11.6124 8.9975 10.3187 8.755 8.68492 7.7475C8.43626 8.45341 8.11341 9.13096 7.72179 9.76875C8.42519 9.98529 9.08684 10.3194 9.67867 10.7569C10.8705 11.6656 11.5005 12.9594 11.5005 14.5C11.5005 14.6326 11.4479 14.7598 11.3541 14.8536C11.2603 14.9473 11.1332 15 11.0005 15C10.8679 15 10.7408 14.9473 10.647 14.8536C10.5532 14.7598 10.5005 14.6326 10.5005 14.5C10.5005 11.8938 8.33242 10.9556 7.11679 10.6344C7.08242 10.6781 7.04679 10.7225 7.01117 10.7656C5.78367 12.2531 4.24554 13.0269 2.53429 13.0269C2.33938 13.0278 2.14455 13.0188 1.95054 13C1.81793 12.9867 1.69602 12.9213 1.61163 12.8182C1.52724 12.7151 1.48728 12.5826 1.50054 12.45C1.5138 12.3174 1.5792 12.1955 1.68234 12.1111C1.78549 12.0267 1.91793 11.9867 2.05054 12C3.67054 12.1613 5.07992 11.5319 6.23804 10.125C7.01867 9.17875 7.55054 8.02438 7.81617 7.1875C5.38367 5.77188 3.82992 6.97688 3.81304 6.99C3.76211 7.03349 3.70296 7.06631 3.6391 7.0865C3.57524 7.10669 3.50798 7.11385 3.4413 7.10754C3.37462 7.10124 3.30989 7.0816 3.25094 7.0498C3.192 7.018 3.14005 6.97468 3.09817 6.92242C3.05629 6.87015 3.02534 6.81 3.00715 6.74554C2.98896 6.68109 2.98391 6.61363 2.99229 6.54718C3.00067 6.48073 3.02232 6.41665 3.05595 6.35873C3.08957 6.3008 3.13449 6.25023 3.18804 6.21C3.28179 6.135 5.51429 4.3975 8.78242 6.62063C11.6243 8.5525 13.278 7.89 13.2937 7.8825C13.3536 7.85421 13.4185 7.83811 13.4847 7.83513C13.5509 7.83214 13.617 7.84234 13.6792 7.86513C13.7414 7.88792 13.7984 7.92284 13.847 7.96786C13.8956 8.01289 13.9348 8.06712 13.9622 8.12741C13.9897 8.1877 14.0049 8.25285 14.0069 8.31906C14.009 8.38527 13.9979 8.45124 13.9742 8.51312C13.9506 8.575 13.9149 8.63156 13.8692 8.67952C13.8235 8.72749 13.7687 8.76589 13.708 8.7925H13.7074Z" fill="currentColor"/>
</svg>
