<svg viewBox="0 0 16 16" fill="none" xmlns="http://www.w3.org/2000/svg">
  <path d="M10.9991 6.5C11.3946 6.5 11.7813 6.3827 12.1102 6.16294C12.4391 5.94318 12.6955 5.63082 12.8468 5.26537C12.9982 4.89992 13.0378 4.49778 12.9607 4.10982C12.8835 3.72186 12.693 3.36549 12.4133 3.08579C12.1336 2.80608 11.7772 2.6156 11.3893 2.53843C11.0013 2.46126 10.5992 2.50087 10.2337 2.65224C9.86827 2.80362 9.55591 3.05996 9.33615 3.38886C9.11639 3.71776 8.99909 4.10444 8.99909 4.5C8.99909 5.03043 9.2098 5.53914 9.58487 5.91421C9.95995 6.28929 10.4687 6.5 10.9991 6.5ZM10.9991 3.5C11.1969 3.5 11.3902 3.55865 11.5547 3.66853C11.7191 3.77841 11.8473 3.93459 11.923 4.11732C11.9987 4.30004 12.0185 4.50111 11.9799 4.69509C11.9413 4.88907 11.846 5.06726 11.7062 5.20711C11.5663 5.34696 11.3882 5.4422 11.1942 5.48079C11.0002 5.51937 10.7991 5.49957 10.6164 5.42388C10.4337 5.34819 10.2775 5.22002 10.1676 5.05557C10.0577 4.89112 9.99909 4.69778 9.99909 4.5C9.99909 4.23478 10.1044 3.98043 10.292 3.79289C10.4795 3.60536 10.7339 3.5 10.9991 3.5ZM13.8841 11.5775C13.969 11.6792 14.0101 11.8104 13.9984 11.9423C13.9867 12.0743 13.9231 12.1962 13.8216 12.2813C12.7366 13.1806 11.7678 13.5 10.8841 13.5C9.72284 13.5 8.70784 12.9488 7.76346 12.4375C6.17909 11.5775 4.81096 10.8344 2.82159 12.4838C2.77115 12.5263 2.71278 12.5584 2.64986 12.5783C2.58694 12.5982 2.5207 12.6054 2.45497 12.5996C2.38924 12.5937 2.32532 12.575 2.26689 12.5443C2.20846 12.5136 2.15667 12.4717 2.11452 12.4209C2.07237 12.3702 2.04068 12.3115 2.02129 12.2485C2.0019 12.1854 1.99519 12.1191 2.00154 12.0534C2.00789 11.9877 2.02718 11.924 2.0583 11.8658C2.08941 11.8076 2.13174 11.7561 2.18284 11.7144C4.69346 9.63375 6.57784 10.6563 8.24096 11.5588C9.82534 12.4194 11.1935 13.1619 13.1828 11.5125C13.2847 11.4286 13.4155 11.3884 13.5468 11.4006C13.6782 11.4128 13.7994 11.4764 13.8841 11.5775ZM2.17971 9.21375C2.12861 9.25551 2.08629 9.30696 2.05517 9.36515C2.02406 9.42335 2.00477 9.48712 1.99841 9.5528C1.99206 9.61848 1.99878 9.68477 2.01817 9.74785C2.03756 9.81092 2.06924 9.86954 2.11139 9.92031C2.15355 9.97108 2.20533 10.013 2.26376 10.0437C2.32219 10.0743 2.38612 10.0931 2.45185 10.099C2.51758 10.1048 2.58381 10.0976 2.64673 10.0777C2.70966 10.0578 2.76802 10.0257 2.81846 9.98313C4.80784 8.33438 6.17596 9.07688 7.76034 9.93688C8.70471 10.4494 9.71971 10.9994 10.881 10.9994C11.7647 10.9994 12.7335 10.68 13.8185 9.78063C13.8696 9.73887 13.9119 9.68741 13.943 9.62922C13.9741 9.57103 13.9934 9.50726 13.9998 9.44157C14.0061 9.37589 13.9994 9.3096 13.98 9.24653C13.9606 9.18345 13.9289 9.12484 13.8868 9.07407C13.8446 9.0233 13.7928 8.98137 13.7344 8.95071C13.676 8.92005 13.6121 8.90125 13.5463 8.89542C13.4806 8.88958 13.4144 8.8968 13.3514 8.91669C13.2885 8.93657 13.2302 8.96871 13.1797 9.01125C12.8182 9.32167 12.412 9.57579 11.9747 9.765L8.60971 6.40125C8.00735 5.79637 7.29105 5.31689 6.50224 4.99055C5.71342 4.66421 4.86774 4.49748 4.01409 4.5H2.49909C2.36648 4.5 2.2393 4.55268 2.14553 4.64645C2.05177 4.74022 1.99909 4.86739 1.99909 5C1.99909 5.13261 2.05177 5.25979 2.14553 5.35355C2.2393 5.44732 2.36648 5.5 2.49909 5.5H4.01409C4.92798 5.49825 5.82779 5.72514 6.63159 6.16L4.77971 8.01063C3.98784 8.08438 3.12846 8.4275 2.17971 9.21375ZM7.90284 7.10938L10.786 9.99188C9.91096 9.965 9.10596 9.53 8.23784 9.05875C7.56596 8.69375 6.85721 8.30875 6.08659 8.11813L7.47784 6.72688C7.6261 6.84685 7.76797 6.97452 7.90284 7.10938Z" fill="currentColor"/>
</svg>
