<svg viewBox="0 0 16 16" fill="none" xmlns="http://www.w3.org/2000/svg">
  <path d="M10.7509 5.5C11.097 5.5 11.4353 5.39737 11.7231 5.20507C12.0109 5.01278 12.2352 4.73947 12.3676 4.4197C12.5001 4.09993 12.5347 3.74806 12.4672 3.40859C12.3997 3.06913 12.233 2.75731 11.9883 2.51256C11.7435 2.26782 11.4317 2.10115 11.0923 2.03363C10.7528 1.9661 10.4009 2.00076 10.0812 2.13321C9.76138 2.26566 9.48807 2.48997 9.29578 2.77775C9.10349 3.06554 9.00085 3.40388 9.00085 3.75C9.00085 4.21413 9.18523 4.65925 9.51341 4.98744C9.8416 5.31563 10.2867 5.5 10.7509 5.5ZM10.7509 3C10.8992 3 11.0442 3.04399 11.1675 3.1264C11.2909 3.20881 11.387 3.32594 11.4438 3.46299C11.5005 3.60003 11.5154 3.75083 11.4864 3.89632C11.4575 4.0418 11.3861 4.17544 11.2812 4.28033C11.1763 4.38522 11.0427 4.45665 10.8972 4.48559C10.7517 4.51453 10.6009 4.49968 10.4638 4.44291C10.3268 4.38614 10.2097 4.29001 10.1272 4.16668C10.0448 4.04334 10.0009 3.89834 10.0009 3.75C10.0009 3.55109 10.0799 3.36032 10.2205 3.21967C10.3612 3.07902 10.5519 3 10.7509 3ZM2.02085 4.86C2.03924 4.79697 2.06986 4.73817 2.11097 4.68697C2.15207 4.63577 2.20286 4.59317 2.26044 4.56159C2.31801 4.53002 2.38123 4.5101 2.44651 4.50296C2.51178 4.49583 2.57782 4.50162 2.64085 4.52L7.00085 5.79188L7.64585 5.14625C7.69229 5.09976 7.74743 5.06288 7.80813 5.03772C7.86883 5.01256 7.93389 4.99961 7.9996 4.99961C8.06531 4.99961 8.13037 5.01256 8.19107 5.03772C8.25177 5.06288 8.30692 5.09976 8.35335 5.14625L10.2077 7H12.5009C12.6335 7 12.7606 7.05268 12.8544 7.14645C12.9482 7.24022 13.0009 7.36739 13.0009 7.5C13.0009 7.63261 12.9482 7.75979 12.8544 7.85355C12.7606 7.94732 12.6335 8 12.5009 8H10.0009C9.93517 8.00005 9.87012 7.98716 9.80943 7.96207C9.74873 7.93697 9.69357 7.90017 9.6471 7.85375L9.29648 7.5L2.35898 5.4775C2.23258 5.43995 2.12614 5.354 2.06281 5.23835C1.99949 5.1227 1.98441 4.98672 2.02085 4.86ZM14.7784 12.765C14.2481 13.1193 13.6467 13.353 13.0164 13.4496C12.3861 13.5463 11.7422 13.5035 11.1302 13.3244L1.36148 10.4794C1.29734 10.462 1.23731 10.432 1.18489 10.3912C1.13247 10.3503 1.08872 10.2995 1.0562 10.2415C1.02367 10.1836 1.00301 10.1197 0.995443 10.0537C0.987873 9.98771 0.993537 9.92085 1.0121 9.85705C1.03067 9.79325 1.06177 9.73379 1.10358 9.68215C1.14539 9.6305 1.19708 9.58771 1.25562 9.55627C1.31416 9.52483 1.37837 9.50537 1.44452 9.49904C1.51066 9.49271 1.57741 9.49962 1.64085 9.51938L6.39085 10.9025L8.04648 9.25L5.36335 8.48063C5.30019 8.46257 5.24121 8.43225 5.18977 8.3914C5.13833 8.35055 5.09544 8.29996 5.06355 8.24254C4.99914 8.12656 4.98345 7.98974 5.01991 7.86219C5.03797 7.79903 5.06829 7.74005 5.10914 7.68861C5.14999 7.63717 5.20058 7.59428 5.258 7.56239C5.37398 7.49798 5.5108 7.48228 5.63835 7.51875L9.13835 8.51875C9.22209 8.54266 9.29813 8.58802 9.35894 8.65035C9.41976 8.71267 9.46324 8.7898 9.48509 8.8741C9.50694 8.95839 9.50639 9.04693 9.4835 9.13095C9.46062 9.21497 9.41618 9.29156 9.3546 9.35313L7.48585 11.2219L11.4102 12.3644C11.882 12.5026 12.3784 12.5355 12.8644 12.461C13.3503 12.3865 13.814 12.2063 14.2227 11.9331C14.2773 11.8967 14.3386 11.8714 14.403 11.8586C14.4674 11.8458 14.5337 11.8459 14.5981 11.8587C14.6625 11.8716 14.7237 11.897 14.7783 11.9335C14.8329 11.97 14.8797 12.0169 14.9162 12.0716C14.9526 12.1262 14.9779 12.1875 14.9907 12.2519C15.0035 12.3163 15.0034 12.3826 14.9906 12.447C14.9777 12.5113 14.9523 12.5726 14.9158 12.6271C14.8793 12.6817 14.8323 12.7286 14.7777 12.765H14.7784Z" fill="currentColor"/>
</svg>
