<svg xmlns="http://www.w3.org/2000/svg" style="display:none">
<symbol id="check" viewBox="0 0 24 24"><path d="M5 12l5 5L20 7"/></symbol>
<symbol id="close" viewBox="0 0 20 20"><path d="M16.0673 15.1829C16.1254 15.241 16.1714 15.3099 16.2028 15.3858C16.2343 15.4617 16.2505 15.543 16.2505 15.6251C16.2505 15.7072 16.2343 15.7885 16.2028 15.8644C16.1714 15.9403 16.1254 16.0092 16.0673 16.0673C16.0092 16.1254 15.9403 16.1714 15.8644 16.2028C15.7885 16.2343 15.7072 16.2505 15.6251 16.2505C15.543 16.2505 15.4617 16.2343 15.3858 16.2028C15.3099 16.1714 15.241 16.1254 15.1829 16.0673L10.0001 10.8837L4.81729 16.0673C4.70002 16.1846 4.54096 16.2505 4.3751 16.2505C4.20925 16.2505 4.05019 16.1846 3.93292 16.0673C3.81564 15.95 3.74976 15.791 3.74976 15.6251C3.74976 15.4593 3.81564 15.3002 3.93292 15.1829L9.11651 10.0001L3.93292 4.81729C3.81564 4.70002 3.74976 4.54096 3.74976 4.3751C3.74976 4.20925 3.81564 4.05019 3.93292 3.93292C4.05019 3.81564 4.20925 3.74976 4.3751 3.74976C4.54096 3.74976 4.70002 3.81564 4.81729 3.93292L10.0001 9.11651L15.1829 3.93292C15.3002 3.81564 15.4593 3.74976 15.6251 3.74976C15.791 3.74976 15.95 3.81564 16.0673 3.93292C16.1846 4.05019 16.2505 4.20925 16.2505 4.3751C16.2505 4.54096 16.1846 4.70002 16.0673 4.81729L10.8837 10.0001L16.0673 15.1829Z" fill="currentColor"/></symbol>
<symbol id="project" viewBox="0 0 20 20"><path d="M18.0637 4.64375L11.8137 17.7688C11.7796 17.8449 11.7308 17.9134 11.6699 17.9703C11.609 18.0272 11.5373 18.0714 11.4591 18.1002C11.3809 18.129 11.2977 18.1419 11.2144 18.1381C11.1311 18.1343 11.0495 18.1138 10.9742 18.078C10.899 18.0421 10.8316 17.9916 10.7762 17.9293C10.7208 17.8671 10.6784 17.7943 10.6515 17.7154C10.6246 17.6365 10.6137 17.5531 10.6196 17.4699C10.6254 17.3867 10.6478 17.3056 10.6855 17.2312L12.9387 12.5H2.49959C2.37803 12.5001 2.2591 12.4647 2.15734 12.3982C2.05558 12.3317 1.97542 12.237 1.92666 12.1257C1.87791 12.0143 1.86269 11.8912 1.88286 11.7713C1.90302 11.6514 1.95771 11.54 2.04021 11.4508L5.36521 7.84922L2.07693 4.83594C1.984 4.75084 1.91897 4.63965 1.89035 4.51694C1.86174 4.39423 1.87088 4.26573 1.91658 4.14831C1.96229 4.03089 2.04241 3.93002 2.14645 3.85894C2.25049 3.78786 2.37359 3.74989 2.49959 3.75H17.4996C17.6051 3.75003 17.7089 3.77678 17.8013 3.82773C17.8936 3.87869 17.9716 3.95221 18.0279 4.04143C18.0842 4.13065 18.117 4.23267 18.1233 4.33799C18.1295 4.44331 18.109 4.5485 18.0637 4.64375Z" fill="currentColor"/></symbol>
<symbol id="search" viewBox="0 0 16 16"><path d="M14.3536 13.6461L11.2243 10.5174C12.1313 9.42846 12.5836 8.03177 12.487 6.61786C12.3905 5.20395 11.7526 3.88168 10.706 2.92613C9.65938 1.97058 8.28468 1.45531 6.86784 1.48751C5.451 1.51971 4.10112 2.0969 3.09901 3.09901C2.0969 4.10112 1.51971 5.451 1.48751 6.86784C1.45531 8.28468 1.97058 9.65938 2.92613 10.706C3.88168 11.7526 5.20395 12.3905 6.61786 12.487C8.03177 12.5836 9.42846 12.1313 10.5174 11.2243L13.6461 14.3536C13.6926 14.4001 13.7478 14.437 13.8085 14.4621C13.8691 14.4872 13.9342 14.5002 13.9999 14.5002C14.0656 14.5002 14.1307 14.4872 14.1913 14.4621C14.252 14.437 14.3072 14.4001 14.3536 14.3536C14.4001 14.3072 14.437 14.252 14.4621 14.1913C14.4872 14.1307 14.5002 14.0656 14.5002 13.9999C14.5002 13.9342 14.4872 13.8691 14.4621 13.8085C14.437 13.7478 14.4001 13.6926 14.3536 13.6461ZM2.4999 6.9999C2.4999 6.10988 2.76382 5.23985 3.25829 4.49983C3.75275 3.75981 4.45556 3.18303 5.27782 2.84244C6.10009 2.50185 7.00489 2.41273 7.8778 2.58636C8.75072 2.76 9.55254 3.18858 10.1819 3.81792C10.8112 4.44725 11.2398 5.24908 11.4134 6.12199C11.5871 6.99491 11.498 7.89971 11.1574 8.72197C10.8168 9.54424 10.24 10.247 9.49996 10.7415C8.75994 11.236 7.88991 11.4999 6.9999 11.4999C5.80683 11.4986 4.66301 11.024 3.81938 10.1804C2.97575 9.33679 2.50122 8.19297 2.4999 6.9999Z" fill="currentColor"/></symbol>
<symbol id="sport" viewBox="0 0 20 20"><path d="M10 1.875C8.39303 1.875 6.82214 2.35152 5.486 3.24431C4.14985 4.1371 3.10844 5.40605 2.49348 6.8907C1.87852 8.37535 1.71762 10.009 2.03112 11.5851C2.34463 13.1612 3.11846 14.6089 4.25476 15.7452C5.39106 16.8815 6.8388 17.6554 8.4149 17.9689C9.99099 18.2824 11.6247 18.1215 13.1093 17.5065C14.594 16.8916 15.8629 15.8502 16.7557 14.514C17.6485 13.1779 18.125 11.607 18.125 10C18.1227 7.84581 17.266 5.78051 15.7427 4.25727C14.2195 2.73403 12.1542 1.87727 10 1.875ZM16.8461 9.375H14.1695C14.1656 8.21598 13.9142 7.07116 13.4322 6.01715C12.9501 4.96314 12.2485 4.02424 11.3742 3.26328C12.821 3.56082 14.1338 4.31547 15.119 5.4159C16.1042 6.51633 16.7097 7.90428 16.8461 9.375ZM3.47891 12.1773C3.01094 10.7761 3.00703 9.2614 3.46777 7.85779C3.92851 6.45418 4.82936 5.23644 6.03672 4.38516L7.37422 6.70156C6.37239 7.28419 5.5066 8.07413 4.83481 9.0185C4.16302 9.96286 3.70074 11.0398 3.47891 12.1773ZM4.60157 14.2523C4.5028 12.9639 4.76916 11.6737 5.37011 10.5297C5.97106 9.38567 6.88226 8.4342 7.99922 7.78438L9.27813 10L6.03672 15.6148C5.49556 15.2317 5.01224 14.7729 4.60157 14.2523ZM16.3859 12.5453C15.3195 13.2764 14.0684 13.6919 12.7765 13.7441C11.4845 13.7964 10.2041 13.4832 9.08204 12.8406L10.3609 10.625H16.8453C16.7863 11.284 16.6316 11.9309 16.3859 12.5453Z" fill="currentColor"/></symbol>
<symbol id="travel" viewBox="0 0 20 20"><path d="M17.8844 3.88212C17.8095 3.82378 17.7223 3.78326 17.6295 3.76364C17.5366 3.74401 17.4405 3.74579 17.3484 3.76884L12.5727 4.96259L7.77969 2.56571C7.64614 2.4991 7.49317 2.48248 7.34844 2.51884L2.34844 3.76884C2.21323 3.80264 2.09319 3.88066 2.00741 3.9905C1.92163 4.10035 1.87502 4.23572 1.875 4.37509V15.6251C1.87501 15.7201 1.89667 15.8138 1.93833 15.8991C1.97998 15.9845 2.04054 16.0592 2.1154 16.1176C2.19025 16.1761 2.27745 16.2167 2.37035 16.2364C2.46326 16.2561 2.55943 16.2544 2.65156 16.2313L7.42734 15.0376L12.2203 17.4345C12.3073 17.4774 12.403 17.4998 12.5 17.5001C12.5511 17.5001 12.602 17.4938 12.6516 17.4813L17.6516 16.2313C17.7868 16.1975 17.9068 16.1195 17.9926 16.0097C18.0784 15.8998 18.125 15.7645 18.125 15.6251V4.37509C18.125 4.28003 18.1034 4.18622 18.0617 4.10079C18.02 4.01537 17.9593 3.94058 17.8844 3.88212ZM7.5 13.7501C7.4489 13.7501 7.398 13.7564 7.34844 13.7688L3.125 14.8243V4.86337L7.42734 3.78759L7.5 3.82352V13.7501ZM16.875 15.1368L12.5727 16.2126L12.5 16.1766V6.25009C12.5511 6.25031 12.602 6.24428 12.6516 6.23212L16.875 5.17587V15.1368Z" fill="currentColor"/></symbol>
</svg>