<svg xmlns="http://www.w3.org/2000/svg" style="display:none">
<symbol id="arrow-left" viewBox="0 0 24 24"><path d="M19 12H5"/><path d="M12 19l-7-7 7-7"/></symbol>
<symbol id="back" viewBox="0 0 16 16"><path d="M11.8538 7.64625C11.9002 7.69269 11.9371 7.74783 11.9623 7.80853C11.9874 7.86923 12.0004 7.93429 12.0004 8C12.0004 8.06571 11.9874 8.13077 11.9623 8.19147C11.9371 8.25217 11.9002 8.30731 11.8538 8.35375L7.35375 12.8538C7.3073 12.9002 7.25214 12.9371 7.19145 12.9622C7.13075 12.9873 7.0657 13.0003 7 13.0003C6.9343 13.0003 6.86925 12.9873 6.80855 12.9622C6.74786 12.9371 6.6927 12.9002 6.64625 12.8538C6.59979 12.8073 6.56294 12.7521 6.5378 12.6914C6.51266 12.6308 6.49972 12.5657 6.49972 12.5C6.49972 12.4343 6.51266 12.3692 6.5378 12.3086C6.56294 12.2479 6.59979 12.1927 6.64625 12.1462L10.2931 8.5H2C1.86739 8.5 1.74021 8.44732 1.64645 8.35355C1.55268 8.25979 1.5 8.13261 1.5 8C1.5 7.86739 1.55268 7.74021 1.64645 7.64645C1.74021 7.55268 1.86739 7.5 2 7.5H10.2931L6.64625 3.85375C6.55243 3.75993 6.49972 3.63268 6.49972 3.5C6.49972 3.36732 6.55243 3.24007 6.64625 3.14625C6.74007 3.05243 6.86732 2.99972 7 2.99972C7.13268 2.99972 7.25993 3.05243 7.35375 3.14625L11.8538 7.64625ZM13.5 2C13.3674 2 13.2402 2.05268 13.1464 2.14645C13.0527 2.24021 13 2.36739 13 2.5V13.5C13 13.6326 13.0527 13.7598 13.1464 13.8536C13.2402 13.9473 13.3674 14 13.5 14C13.6326 14 13.7598 13.9473 13.8536 13.8536C13.9473 13.7598 14 13.6326 14 13.5V2.5C14 2.36739 13.9473 2.24021 13.8536 2.14645C13.7598 2.05268 13.6326 2 13.5 2Z" fill="currentColor"/></symbol>
<symbol id="camera-off" viewBox="0 0 24 24"><path d="M3 5L21 19" stroke="currentColor" stroke-width="1.8" stroke-linecap="round"/><path d="M9.5 6L10.4 4.8C10.7 4.4 11.2 4 11.8 4H14.2C14.8 4 15.3 4.4 15.6 4.8L16.5 6H18C19.1 6 20 6.9 20 8V14.5" stroke="currentColor" stroke-width="1.8" stroke-linecap="round" stroke-linejoin="round"/><path d="M7.8 6H6C4.9 6 4 6.9 4 8V16C4 17.1 4.9 18 6 18H18C19.1 18 20 17.1 20 16V16.2" stroke="currentColor" stroke-width="1.8" stroke-linecap="round" stroke-linejoin="round"/><path d="M10.1 10.2C10.6 9.75 11.25 9.5 12 9.5C13.65 9.5 15 10.85 15 12.5C15 13.25 14.75 13.9 14.3 14.4" stroke="currentColor" stroke-width="1.8" stroke-linecap="round"/><path d="M9.1 13.7C9.04 13.44 9 13.17 9 12.9C9 12.2 9.23 11.55 9.63 11.02" stroke="currentColor" stroke-width="1.8" stroke-linecap="round"/></symbol>
<symbol id="caret-left" viewBox="0 0 20 20"><path d="M12.9422 15.8078C13.0003 15.8659 13.0463 15.9348 13.0777 16.0107C13.1092 16.0865 13.1254 16.1679 13.1254 16.25C13.1254 16.3321 13.1092 16.4134 13.0777 16.4893C13.0463 16.5652 13.0003 16.6341 12.9422 16.6922C12.8841 16.7502 12.8152 16.7963 12.7393 16.8277C12.6634 16.8592 12.5821 16.8753 12.5 16.8753C12.4179 16.8753 12.3366 16.8592 12.2607 16.8277C12.1848 16.7963 12.1159 16.7502 12.0578 16.6922L5.80782 10.4422C5.74971 10.3841 5.70361 10.3152 5.67215 10.2393C5.6407 10.1634 5.62451 10.0821 5.62451 9.99998C5.62451 9.91785 5.6407 9.83652 5.67215 9.76064C5.70361 9.68477 5.74971 9.61584 5.80782 9.55779L12.0578 3.30779C12.1751 3.19052 12.3342 3.12463 12.5 3.12463C12.6659 3.12463 12.8249 3.19052 12.9422 3.30779C13.0595 3.42507 13.1254 3.58413 13.1254 3.74998C13.1254 3.91583 13.0595 4.07489 12.9422 4.19217L7.1336 9.99998L12.9422 15.8078Z" fill="currentColor"/></symbol>
<symbol id="caret-right" viewBox="0 0 20 20"><path d="M14.192 10.4422L7.94205 16.6922C7.88398 16.7502 7.81504 16.7963 7.73917 16.8277C7.6633 16.8592 7.58198 16.8753 7.49986 16.8753C7.41774 16.8753 7.33642 16.8592 7.26055 16.8277C7.18468 16.7963 7.11574 16.7502 7.05767 16.6922C6.9996 16.6341 6.95354 16.5652 6.92211 16.4893C6.89069 16.4134 6.87451 16.3321 6.87451 16.25C6.87451 16.1679 6.89069 16.0865 6.92211 16.0107C6.95354 15.9348 6.9996 15.8659 7.05767 15.8078L12.8663 9.99998L7.05767 4.19217C6.9404 4.07489 6.87451 3.91583 6.87451 3.74998C6.87451 3.58413 6.9404 3.42507 7.05767 3.30779C7.17495 3.19052 7.33401 3.12463 7.49986 3.12463C7.66571 3.12463 7.82477 3.19052 7.94205 3.30779L14.192 9.55779C14.2502 9.61584 14.2963 9.68477 14.3277 9.76064C14.3592 9.83652 14.3754 9.91785 14.3754 9.99998C14.3754 10.0821 14.3592 10.1634 14.3277 10.2393C14.2963 10.3152 14.2502 10.3841 14.192 10.4422Z" fill="currentColor"/></symbol>
<symbol id="check-circle" viewBox="0 0 13 13"><path d="M6.5 0C5.21442 0 3.95772 0.381218 2.8888 1.09545C1.81988 1.80968 0.986756 2.82484 0.494786 4.01256C0.00281635 5.20028 -0.125905 6.50721 0.124899 7.76809C0.375703 9.02896 0.994767 10.1872 1.90381 11.0962C2.81285 12.0052 3.97104 12.6243 5.23192 12.8751C6.49279 13.1259 7.79973 12.9972 8.98744 12.5052C10.1752 12.0132 11.1903 11.1801 11.9046 10.1112C12.6188 9.04229 13 7.78558 13 6.5C12.9982 4.77665 12.3128 3.12441 11.0942 1.90582C9.8756 0.687224 8.22335 0.00181989 6.5 0ZM9.35375 5.35375L5.85375 8.85375C5.80732 8.90024 5.75217 8.93712 5.69147 8.96228C5.63077 8.98744 5.56571 9.00039 5.5 9.00039C5.4343 9.00039 5.36923 8.98744 5.30853 8.96228C5.24783 8.93712 5.19269 8.90024 5.14625 8.85375L3.64625 7.35375C3.55243 7.25993 3.49972 7.13268 3.49972 7C3.49972 6.86732 3.55243 6.74007 3.64625 6.64625C3.74007 6.55243 3.86732 6.49972 4 6.49972C4.13268 6.49972 4.25993 6.55243 4.35375 6.64625L5.5 7.79313L8.64625 4.64625C8.69271 4.59979 8.74786 4.56294 8.80855 4.5378C8.86925 4.51266 8.93431 4.49972 9 4.49972C9.0657 4.49972 9.13075 4.51266 9.19145 4.5378C9.25215 4.56294 9.3073 4.59979 9.35375 4.64625C9.40021 4.6927 9.43706 4.74786 9.4622 4.80855C9.48734 4.86925 9.50028 4.9343 9.50028 5C9.50028 5.0657 9.48734 5.13075 9.4622 5.19145C9.43706 5.25214 9.40021 5.3073 9.35375 5.35375Z" fill="#343A40"/></symbol>
<symbol id="check" viewBox="0 0 18 18"><path d="M16.5 0H1.5C1.10218 0 0.720644 0.158035 0.43934 0.43934C0.158035 0.720644 0 1.10218 0 1.5V16.5C0 16.8978 0.158035 17.2794 0.43934 17.5607C0.720644 17.842 1.10218 18 1.5 18H16.5C16.8978 18 17.2794 17.842 17.5607 17.5607C17.842 17.2794 18 16.8978 18 16.5V1.5C18 1.10218 17.842 0.720644 17.5607 0.43934C17.2794 0.158035 16.8978 0 16.5 0ZM13.2806 7.28063L8.03063 12.5306C7.96097 12.6004 7.87825 12.6557 7.78721 12.6934C7.69616 12.7312 7.59856 12.7506 7.5 12.7506C7.40144 12.7506 7.30384 12.7312 7.21279 12.6934C7.12175 12.6557 7.03903 12.6004 6.96937 12.5306L4.71937 10.2806C4.57864 10.1399 4.49958 9.94902 4.49958 9.75C4.49958 9.55098 4.57864 9.36011 4.71937 9.21937C4.86011 9.07864 5.05098 8.99958 5.25 8.99958C5.44902 8.99958 5.63989 9.07864 5.78063 9.21937L7.5 10.9397L12.2194 6.21937C12.2891 6.14969 12.3718 6.09442 12.4628 6.0567C12.5539 6.01899 12.6515 5.99958 12.75 5.99958C12.8485 5.99958 12.9461 6.01899 13.0372 6.0567C13.1282 6.09442 13.2109 6.14969 13.2806 6.21937C13.3503 6.28906 13.4056 6.37178 13.4433 6.46283C13.481 6.55387 13.5004 6.65145 13.5004 6.75C13.5004 6.84855 13.481 6.94613 13.4433 7.03717C13.4056 7.12822 13.3503 7.21094 13.2806 7.28063Z" fill="#343A40"/></symbol>
<symbol id="close" viewBox="0 0 20 20"><path d="M16.0673 15.1829C16.1254 15.241 16.1714 15.3099 16.2028 15.3858C16.2343 15.4617 16.2505 15.543 16.2505 15.6251C16.2505 15.7072 16.2343 15.7885 16.2028 15.8644C16.1714 15.9403 16.1254 16.0092 16.0673 16.0673C16.0092 16.1254 15.9403 16.1714 15.8644 16.2028C15.7885 16.2343 15.7072 16.2505 15.6251 16.2505C15.543 16.2505 15.4617 16.2343 15.3858 16.2028C15.3099 16.1714 15.241 16.1254 15.1829 16.0673L10.0001 10.8837L4.81729 16.0673C4.70002 16.1846 4.54096 16.2505 4.3751 16.2505C4.20925 16.2505 4.05019 16.1846 3.93292 16.0673C3.81564 15.95 3.74976 15.791 3.74976 15.6251C3.74976 15.4593 3.81564 15.3002 3.93292 15.1829L9.11651 10.0001L3.93292 4.81729C3.81564 4.70002 3.74976 4.54096 3.74976 4.3751C3.74976 4.20925 3.81564 4.05019 3.93292 3.93292C4.05019 3.81564 4.20925 3.74976 4.3751 3.74976C4.54096 3.74976 4.70002 3.81564 4.81729 3.93292L10.0001 9.11651L15.1829 3.93292C15.3002 3.81564 15.4593 3.74976 15.6251 3.74976C15.791 3.74976 15.95 3.81564 16.0673 3.93292C16.1846 4.05019 16.2505 4.20925 16.2505 4.3751C16.2505 4.54096 16.1846 4.70002 16.0673 4.81729L10.8837 10.0001L16.0673 15.1829Z" fill="currentColor"/></symbol>
<symbol id="filter-line" viewBox="0 0 16 16"><path d="M2.5 5.50002H4.5625C4.67265 5.93022 4.92285 6.31153 5.27365 6.58384C5.62446 6.85614 6.05591 7.00394 6.5 7.00394C6.94409 7.00394 7.37554 6.85614 7.72635 6.58384C8.07715 6.31153 8.32735 5.93022 8.4375 5.50002H13.5C13.6326 5.50002 13.7598 5.44734 13.8536 5.35357C13.9473 5.2598 14 5.13262 14 5.00002C14 4.86741 13.9473 4.74023 13.8536 4.64646C13.7598 4.55269 13.6326 4.50002 13.5 4.50002H8.4375C8.32735 4.06981 8.07715 3.6885 7.72635 3.4162C7.37554 3.14389 6.94409 2.99609 6.5 2.99609C6.05591 2.99609 5.62446 3.14389 5.27365 3.4162C4.92285 3.6885 4.67265 4.06981 4.5625 4.50002H2.5C2.36739 4.50002 2.24021 4.55269 2.14645 4.64646C2.05268 4.74023 2 4.86741 2 5.00002C2 5.13262 2.05268 5.2598 2.14645 5.35357C2.24021 5.44734 2.36739 5.50002 2.5 5.50002ZM6.5 4.00002C6.69778 4.00002 6.89112 4.05866 7.05557 4.16855C7.22002 4.27843 7.34819 4.43461 7.42388 4.61733C7.49957 4.80006 7.51937 5.00112 7.48079 5.19511C7.4422 5.38909 7.34696 5.56727 7.20711 5.70712C7.06725 5.84697 6.88907 5.94222 6.69509 5.9808C6.50111 6.01939 6.30004 5.99958 6.11732 5.9239C5.93459 5.84821 5.77841 5.72003 5.66853 5.55559C5.55865 5.39114 5.5 5.1978 5.5 5.00002C5.5 4.7348 5.60536 4.48045 5.79289 4.29291C5.98043 4.10537 6.23478 4.00002 6.5 4.00002ZM13.5 10.5H12.4375C12.3273 10.0698 12.0771 9.6885 11.7263 9.4162C11.3755 9.1439 10.9441 8.99609 10.5 8.99609C10.0559 8.99609 9.62446 9.1439 9.27365 9.4162C8.92285 9.6885 8.67265 10.0698 8.5625 10.5H2.5C2.36739 10.5 2.24021 10.5527 2.14645 10.6465C2.05268 10.7402 2 10.8674 2 11C2 11.1326 2.05268 11.2598 2.14645 11.3536C2.24021 11.4473 2.36739 11.5 2.5 11.5H8.5625C8.67265 11.9302 8.92285 12.3115 9.27365 12.5838C9.62446 12.8561 10.0559 13.0039 10.5 13.0039C10.9441 13.0039 11.3755 12.8561 11.7263 12.5838C12.0771 12.3115 12.3273 11.9302 12.4375 11.5H13.5C13.6326 11.5 13.7598 11.4473 13.8536 11.3536C13.9473 11.2598 14 11.1326 14 11C14 10.8674 13.9473 10.7402 13.8536 10.6465C13.7598 10.5527 13.6326 10.5 13.5 10.5ZM10.5 12C10.3022 12 10.1089 11.9414 9.94443 11.8315C9.77998 11.7216 9.65181 11.5654 9.57612 11.3827C9.50043 11.2 9.48063 10.9989 9.51921 10.8049C9.5578 10.6109 9.65304 10.4328 9.79289 10.2929C9.93275 10.1531 10.1109 10.0578 10.3049 10.0192C10.4989 9.98064 10.7 10.0004 10.8827 10.0761C11.0654 10.1518 11.2216 10.28 11.3315 10.4444C11.4414 10.6089 11.5 10.8022 11.5 11C11.5 11.2652 11.3946 11.5196 11.2071 11.7071C11.0196 11.8947 10.7652 12 10.5 12Z" fill="currentColor"/></symbol>
<symbol id="filter" viewBox="0 0 16 16"><path d="M2 4h12M2 8h12M2 12h12" stroke="currentColor" stroke-width="1.5" stroke-linecap="round"/></symbol>
<symbol id="flag" viewBox="0 0 20 20"><path d="M4 2V14H2V16H6V10H14L12 7L14 4H6V2H4Z" fill="currentColor"/></symbol>
<symbol id="location" viewBox="0 0 16 16"><path d="M12.5 14H9.40875C9.92803 13.5363 10.4177 13.0406 10.875 12.5156C12.5906 10.5425 13.5 8.4625 13.5 6.5C13.5 5.04131 12.9205 3.64236 11.8891 2.61091C10.8576 1.57946 9.45869 1 8 1C6.54131 1 5.14236 1.57946 4.11091 2.61091C3.07946 3.64236 2.5 5.04131 2.5 6.5C2.5 8.4625 3.40688 10.5425 5.125 12.5156C5.58226 13.0406 6.07197 13.5363 6.59125 14H3.5C3.36739 14 3.24021 14.0527 3.14645 14.1464C3.05268 14.2402 3 14.3674 3 14.5C3 14.6326 3.05268 14.7598 3.14645 14.8536C3.24021 14.9473 3.36739 15 3.5 15H12.5C12.6326 15 12.7598 14.9473 12.8536 14.8536C12.9473 14.7598 13 14.6326 13 14.5C13 14.3674 12.9473 14.2402 12.8536 14.1464C12.7598 14.0527 12.6326 14 12.5 14ZM3.5 6.5C3.5 5.30653 3.97411 4.16193 4.81802 3.31802C5.66193 2.47411 6.80653 2 8 2C9.19347 2 10.3381 2.47411 11.182 3.31802C12.0259 4.16193 12.5 5.30653 12.5 6.5C12.5 10.0769 9.03312 13.0625 8 13.875C6.96688 13.0625 3.5 10.0769 3.5 6.5ZM10.5 6.5C10.5 6.00555 10.3534 5.5222 10.0787 5.11107C9.80397 4.69995 9.41352 4.37952 8.95671 4.1903C8.49989 4.00108 7.99723 3.95157 7.51227 4.04804C7.02732 4.1445 6.58186 4.3826 6.23223 4.73223C5.8826 5.08186 5.6445 5.52732 5.54804 6.01227C5.45157 6.49723 5.50108 6.99989 5.6903 7.45671C5.87952 7.91352 6.19995 8.30397 6.61107 8.57867C7.0222 8.85338 7.50555 9 8 9C8.66304 9 9.29893 8.73661 9.76777 8.26777C10.2366 7.79893 10.5 7.16304 10.5 6.5ZM6.5 6.5C6.5 6.20333 6.58797 5.91332 6.7528 5.66664C6.91762 5.41997 7.15189 5.22771 7.42597 5.11418C7.70006 5.00065 8.00166 4.97094 8.29264 5.02882C8.58361 5.0867 8.85088 5.22956 9.06066 5.43934C9.27044 5.64912 9.4133 5.91639 9.47118 6.20736C9.52906 6.49834 9.49935 6.79994 9.38582 7.07403C9.27229 7.34811 9.08003 7.58238 8.83335 7.7472C8.58668 7.91203 8.29667 8 8 8C7.60218 8 7.22064 7.84196 6.93934 7.56066C6.65804 7.27936 6.5 6.89782 6.5 6.5Z" fill="currentColor"/></symbol>
<symbol id="project" viewBox="0 0 20 20"><path d="M18.0637 4.64375L11.8137 17.7688C11.7796 17.8449 11.7308 17.9134 11.6699 17.9703C11.609 18.0272 11.5373 18.0714 11.4591 18.1002C11.3809 18.129 11.2977 18.1419 11.2144 18.1381C11.1311 18.1343 11.0495 18.1138 10.9742 18.078C10.899 18.0421 10.8316 17.9916 10.7762 17.9293C10.7208 17.8671 10.6784 17.7943 10.6515 17.7154C10.6246 17.6365 10.6137 17.5531 10.6196 17.4699C10.6254 17.3867 10.6478 17.3056 10.6855 17.2312L12.9387 12.5H2.49959C2.37803 12.5001 2.2591 12.4647 2.15734 12.3982C2.05558 12.3317 1.97542 12.237 1.92666 12.1257C1.87791 12.0143 1.86269 11.8912 1.88286 11.7713C1.90302 11.6514 1.95771 11.54 2.04021 11.4508L5.36521 7.84922L2.07693 4.83594C1.984 4.75084 1.91897 4.63965 1.89035 4.51694C1.86174 4.39423 1.87088 4.26573 1.91658 4.14831C1.96229 4.03089 2.04241 3.93002 2.14645 3.85894C2.25049 3.78786 2.37359 3.74989 2.49959 3.75H17.4996C17.6051 3.75003 17.7089 3.77678 17.8013 3.82773C17.8936 3.87869 17.9716 3.95221 18.0279 4.04143C18.0842 4.13065 18.117 4.23267 18.1233 4.33799C18.1295 4.44331 18.109 4.5485 18.0637 4.64375Z" fill="currentColor"/></symbol>
<symbol id="search" viewBox="0 0 16 16"><path d="M14.3536 13.6461L11.2243 10.5174C12.1313 9.42846 12.5836 8.03177 12.487 6.61786C12.3905 5.20395 11.7526 3.88168 10.706 2.92613C9.65938 1.97058 8.28468 1.45531 6.86784 1.48751C5.451 1.51971 4.10112 2.0969 3.09901 3.09901C2.0969 4.10112 1.51971 5.451 1.48751 6.86784C1.45531 8.28468 1.97058 9.65938 2.92613 10.706C3.88168 11.7526 5.20395 12.3905 6.61786 12.487C8.03177 12.5836 9.42846 12.1313 10.5174 11.2243L13.6461 14.3536C13.6926 14.4001 13.7478 14.437 13.8085 14.4621C13.8691 14.4872 13.9342 14.5002 13.9999 14.5002C14.0656 14.5002 14.1307 14.4872 14.1913 14.4621C14.252 14.437 14.3072 14.4001 14.3536 14.3536C14.4001 14.3072 14.437 14.252 14.4621 14.1913C14.4872 14.1307 14.5002 14.0656 14.5002 13.9999C14.5002 13.9342 14.4872 13.8691 14.4621 13.8085C14.437 13.7478 14.4001 13.6926 14.3536 13.6461ZM2.4999 6.9999C2.4999 6.10988 2.76382 5.23985 3.25829 4.49983C3.75275 3.75981 4.45556 3.18303 5.27782 2.84244C6.10009 2.50185 7.00489 2.41273 7.8778 2.58636C8.75072 2.76 9.55254 3.18858 10.1819 3.81792C10.8112 4.44725 11.2398 5.24908 11.4134 6.12199C11.5871 6.99491 11.498 7.89971 11.1574 8.72197C10.8168 9.54424 10.24 10.247 9.49996 10.7415C8.75994 11.236 7.88991 11.4999 6.9999 11.4999C5.80683 11.4986 4.66301 11.024 3.81938 10.1804C2.97575 9.33679 2.50122 8.19297 2.4999 6.9999Z" fill="currentColor"/></symbol>
<symbol id="sport-bike" viewBox="0 0 16 16"><path d="M10.25 5C10.5961 5 10.9345 4.89737 11.2222 4.70507C11.51 4.51278 11.7343 4.23947 11.8668 3.9197C11.9992 3.59993 12.0339 3.24806 11.9664 2.90859C11.8989 2.56913 11.7322 2.25731 11.4874 2.01256C11.2427 1.76782 10.9309 1.60115 10.5914 1.53363C10.2519 1.4661 9.90008 1.50076 9.58031 1.63321C9.26053 1.76566 8.98722 1.98997 8.79493 2.27775C8.60264 2.56554 8.5 2.90388 8.5 3.25C8.5 3.71413 8.68437 4.15925 9.01256 4.48744C9.34075 4.81563 9.78587 5 10.25 5ZM10.25 2.5C10.3983 2.5 10.5433 2.54399 10.6667 2.6264C10.79 2.70881 10.8861 2.82594 10.9429 2.96299C10.9997 3.10003 11.0145 3.25083 10.9856 3.39632C10.9567 3.5418 10.8852 3.67544 10.7803 3.78033C10.6754 3.88522 10.5418 3.95665 10.3963 3.98559C10.2508 4.01453 10.1 3.99968 9.96299 3.94291C9.82594 3.88614 9.70881 3.79002 9.6264 3.66668C9.54399 3.54334 9.5 3.39834 9.5 3.25C9.5 3.05109 9.57902 2.86032 9.71967 2.71967C9.86032 2.57902 10.0511 2.5 10.25 2.5ZM12.5 8.5C12.0055 8.5 11.5222 8.64662 11.1111 8.92133C10.7 9.19603 10.3795 9.58648 10.1903 10.0433C10.0011 10.5001 9.95157 11.0028 10.048 11.4877C10.1445 11.9727 10.3826 12.4181 10.7322 12.7678C11.0819 13.1174 11.5273 13.3555 12.0123 13.452C12.4972 13.5484 12.9999 13.4989 13.4567 13.3097C13.9135 13.1205 14.304 12.8 14.5787 12.3889C14.8534 11.9778 15 11.4945 15 11C15 10.337 14.7366 9.70107 14.2678 9.23223C13.7989 8.76339 13.163 8.5 12.5 8.5ZM12.5 12.5C12.2033 12.5 11.9133 12.412 11.6666 12.2472C11.42 12.0824 11.2277 11.8481 11.1142 11.574C11.0007 11.2999 10.9709 10.9983 11.0288 10.7074C11.0867 10.4164 11.2296 10.1491 11.4393 9.93934C11.6491 9.72956 11.9164 9.5867 12.2074 9.52882C12.4983 9.47094 12.7999 9.50065 13.074 9.61418C13.3481 9.72771 13.5824 9.91997 13.7472 10.1666C13.912 10.4133 14 10.7033 14 11C14 11.3978 13.842 11.7794 13.5607 12.0607C13.2794 12.342 12.8978 12.5 12.5 12.5ZM3.5 8.5C3.00555 8.5 2.5222 8.64662 2.11108 8.92133C1.69995 9.19603 1.37952 9.58648 1.1903 10.0433C1.00108 10.5001 0.951575 11.0028 1.04804 11.4877C1.1445 11.9727 1.3826 12.4181 1.73223 12.7678C2.08187 13.1174 2.52732 13.3555 3.01228 13.452C3.49723 13.5484 3.99989 13.4989 4.45671 13.3097C4.91352 13.1205 5.30397 12.8 5.57867 12.3889C5.85338 11.9778 6 11.4945 6 11C6 10.6717 5.93534 10.3466 5.8097 10.0433C5.68406 9.73998 5.49991 9.46438 5.26777 9.23223C5.03562 9.00009 4.76002 8.81594 4.45671 8.6903C4.1534 8.56467 3.82831 8.5 3.5 8.5ZM3.5 12.5C3.20333 12.5 2.91332 12.412 2.66665 12.2472C2.41997 12.0824 2.22771 11.8481 2.11418 11.574C2.00065 11.2999 1.97095 10.9983 2.02882 10.7074C2.0867 10.4164 2.22956 10.1491 2.43934 9.93934C2.64912 9.72956 2.91639 9.5867 3.20737 9.52882C3.49834 9.47094 3.79994 9.50065 4.07403 9.61418C4.34812 9.72771 4.58238 9.91997 4.74721 10.1666C4.91203 10.4133 5 10.7033 5 11C5 11.3978 4.84197 11.7794 4.56066 12.0607C4.27936 12.342 3.89783 12.5 3.5 12.5ZM12 7.5H9.5C9.43432 7.50005 9.36927 7.48716 9.30858 7.46207C9.24788 7.43698 9.19272 7.40017 9.14625 7.35375L7.5 5.70688L6.20688 7L8.35375 9.14625C8.40017 9.19272 8.43698 9.24788 8.46207 9.30858C8.48716 9.36927 8.50005 9.43432 8.5 9.5V12.5C8.5 12.6326 8.44732 12.7598 8.35355 12.8536C8.25979 12.9473 8.13261 13 8 13C7.86739 13 7.74022 12.9473 7.64645 12.8536C7.55268 12.7598 7.5 12.6326 7.5 12.5V9.70688L5.14625 7.35375C5.09976 7.30731 5.06288 7.25217 5.03772 7.19147C5.01256 7.13077 4.99961 7.06571 4.99961 7C4.99961 6.93429 5.01256 6.86923 5.03772 6.80853C5.06288 6.74783 5.09976 6.69269 5.14625 6.64625L7.14625 4.64625C7.19269 4.59976 7.24783 4.56288 7.30853 4.53772C7.36923 4.51256 7.43429 4.49961 7.5 4.49961C7.56571 4.49961 7.63077 4.51256 7.69147 4.53772C7.75217 4.56288 7.80731 4.59976 7.85375 4.64625L9.70688 6.5H12C12.1326 6.5 12.2598 6.55268 12.3536 6.64645C12.4473 6.74022 12.5 6.86739 12.5 7C12.5 7.13261 12.4473 7.25979 12.3536 7.35355C12.2598 7.44732 12.1326 7.5 12 7.5Z" fill="currentColor"/></symbol>
<symbol id="sport-climb" viewBox="0 0 16 16"><path d="M12.5 10.5C12.0566 10.5004 11.6259 10.6479 11.2753 10.9193C10.9246 11.1908 10.674 11.5708 10.5625 12H4.5C3.96957 12 3.46086 11.7893 3.08579 11.4142C2.71071 11.0391 2.5 10.5304 2.5 10C2.5 9.46957 2.71071 8.96086 3.08579 8.58579C3.46086 8.21071 3.96957 8 4.5 8H10.5C11.163 8 11.7989 7.73661 12.2678 7.26777C12.7366 6.79893 13 6.16304 13 5.5C13 4.83696 12.7366 4.20107 12.2678 3.73223C11.7989 3.26339 11.163 3 10.5 3H4.5C4.36739 3 4.24021 3.05268 4.14645 3.14645C4.05268 3.24021 4 3.36739 4 3.5C4 3.63261 4.05268 3.75979 4.14645 3.85355C4.24021 3.94732 4.36739 4 4.5 4H10.5C10.8978 4 11.2794 4.15804 11.5607 4.43934C11.842 4.72064 12 5.10218 12 5.5C12 5.89782 11.842 6.27936 11.5607 6.56066C11.2794 6.84196 10.8978 7 10.5 7H4.5C3.70435 7 2.94129 7.31607 2.37868 7.87868C1.81607 8.44129 1.5 9.20435 1.5 10C1.5 10.7956 1.81607 11.5587 2.37868 12.1213C2.94129 12.6839 3.70435 13 4.5 13H10.5625C10.656 13.3621 10.8492 13.6908 11.1201 13.9487C11.391 14.2066 11.7288 14.3833 12.0952 14.4588C12.4615 14.5343 12.8416 14.5056 13.1925 14.3759C13.5433 14.2462 13.8507 14.0208 14.0798 13.7251C14.3089 13.4295 14.4506 13.0756 14.4886 12.7035C14.5267 12.3314 14.4596 11.9561 14.2951 11.6202C14.1305 11.2843 13.8751 11.0013 13.5578 10.8033C13.2405 10.6053 12.874 10.5002 12.5 10.5ZM12.5 13.5C12.3022 13.5 12.1089 13.4414 11.9444 13.3315C11.78 13.2216 11.6518 13.0654 11.5761 12.8827C11.5004 12.7 11.4806 12.4989 11.5192 12.3049C11.5578 12.1109 11.653 11.9327 11.7929 11.7929C11.9327 11.653 12.1109 11.5578 12.3049 11.5192C12.4989 11.4806 12.7 11.5004 12.8827 11.5761C13.0654 11.6518 13.2216 11.78 13.3315 11.9444C13.4414 12.1089 13.5 12.3022 13.5 12.5C13.5 12.7652 13.3946 13.0196 13.2071 13.2071C13.0196 13.3946 12.7652 13.5 12.5 13.5Z" fill="currentColor"/></symbol>
<symbol id="sport-cross-hike" viewBox="0 0 16 16"><path d="M9.49972 5C9.89528 5 10.282 4.8827 10.6109 4.66294C10.9398 4.44318 11.1961 4.13082 11.3475 3.76537C11.4989 3.39992 11.5385 2.99778 11.4613 2.60982C11.3841 2.22186 11.1936 1.86549 10.9139 1.58579C10.6342 1.30608 10.2779 1.1156 9.8899 1.03843C9.50194 0.96126 9.0998 1.00087 8.73435 1.15224C8.3689 1.30362 8.05654 1.55996 7.83678 1.88886C7.61702 2.21776 7.49972 2.60444 7.49972 3C7.49972 3.53043 7.71043 4.03914 8.0855 4.41421C8.46058 4.78929 8.96928 5 9.49972 5ZM9.49972 2C9.6975 2 9.89084 2.05865 10.0553 2.16853C10.2197 2.27841 10.3479 2.43459 10.4236 2.61732C10.4993 2.80004 10.5191 3.00111 10.4805 3.19509C10.4419 3.38907 10.3467 3.56726 10.2068 3.70711C10.067 3.84696 9.88879 3.9422 9.69481 3.98079C9.50083 4.01937 9.29976 3.99957 9.11703 3.92388C8.93431 3.84819 8.77813 3.72002 8.66825 3.55557C8.55837 3.39112 8.49972 3.19778 8.49972 3C8.49972 2.73478 8.60507 2.48043 8.79261 2.29289C8.98015 2.10536 9.2345 2 9.49972 2ZM12.4997 9V14.5C12.4997 14.6326 12.447 14.7598 12.3533 14.8536C12.2595 14.9473 12.1323 15 11.9997 15C11.8671 15 11.7399 14.9473 11.6462 14.8536C11.5524 14.7598 11.4997 14.6326 11.4997 14.5V9.47875C9.89034 9.33813 9.35284 8.50875 8.87472 7.76875C8.69659 7.49438 8.52722 7.23313 8.30409 7.00688L7.46659 8.9325L9.79159 10.5931C9.85612 10.6395 9.90867 10.7006 9.94486 10.7714C9.98106 10.8422 9.99986 10.9205 9.99972 11V14.5C9.99972 14.6326 9.94704 14.7598 9.85327 14.8536C9.7595 14.9473 9.63233 15 9.49972 15C9.36711 15 9.23993 14.9473 9.14616 14.8536C9.0524 14.7598 8.99972 14.6326 8.99972 14.5V11.2575L7.05784 9.87L4.95847 14.6994C4.91961 14.7887 4.85549 14.8648 4.77399 14.9182C4.69249 14.9716 4.59716 15 4.49972 15C4.43106 15.0002 4.36313 14.9859 4.30034 14.9581C4.17891 14.9052 4.08345 14.8062 4.03494 14.6829C3.98642 14.5596 3.98882 14.4221 4.04159 14.3006L7.63659 6.03125C7.66389 5.96852 7.70376 5.91205 7.75376 5.86535C7.80375 5.81865 7.86279 5.7827 7.92724 5.75973C7.99168 5.73677 8.06015 5.72727 8.12842 5.73183C8.19668 5.73639 8.26328 5.75492 8.32409 5.78625C8.50371 5.88 8.67156 5.99476 8.82409 6.12813C9.22222 6.47313 9.48097 6.8725 9.70909 7.225C10.1891 7.965 10.5353 8.5 11.9966 8.5C12.0625 8.49959 12.1279 8.51222 12.1889 8.53716C12.2499 8.5621 12.3054 8.59887 12.3522 8.64534C12.3989 8.69181 12.436 8.74707 12.4614 8.80793C12.4867 8.8688 12.4997 8.93408 12.4997 9ZM4.49972 9.5C4.59755 9.49996 4.69321 9.47121 4.77487 9.41733C4.85652 9.36345 4.92057 9.2868 4.95909 9.19688L6.45909 5.69688C6.51125 5.57504 6.5129 5.43747 6.46367 5.31442C6.41445 5.19136 6.31839 5.09289 6.19659 5.04063L4.44659 4.29063C4.32475 4.23847 4.18719 4.23682 4.06414 4.28604C3.94108 4.33527 3.8426 4.43133 3.79034 4.55313L2.29034 8.05313C2.23819 8.17497 2.23654 8.31253 2.28576 8.43558C2.33498 8.55864 2.43105 8.65712 2.55284 8.70938L4.30284 9.45938C4.36504 9.48611 4.43202 9.49993 4.49972 9.5ZM3.40659 7.9875L4.51222 5.40625L5.34347 5.7625L4.23722 8.34313L3.40659 7.9875Z" fill="currentColor"/></symbol>
<symbol id="sport-hike" viewBox="0 0 16 16"><path d="M15.9569 12.2969L11.9569 3.29688C11.9176 3.20851 11.8535 3.13343 11.7724 3.08074C11.6913 3.02805 11.5967 3 11.5 3H4.49999C4.40413 3.00016 4.31032 3.02787 4.22976 3.07984C4.14921 3.13181 4.08528 3.20585 4.04562 3.29312C4.04544 3.29437 4.04544 3.29563 4.04562 3.29688V3.30437L0.0431191 12.2969C0.00927441 12.373 -0.00501231 12.4564 0.00155705 12.5394C0.00812641 12.6225 0.0353436 12.7026 0.0807357 12.7724C0.126128 12.8423 0.188256 12.8997 0.261475 12.9394C0.334695 12.9792 0.416684 13 0.499994 13H15.5C15.5833 13 15.6653 12.9792 15.7385 12.9394C15.8117 12.8997 15.8739 12.8423 15.9193 12.7724C15.9646 12.7026 15.9919 12.6225 15.9984 12.5394C16.005 12.4564 15.9907 12.373 15.9569 12.2969ZM3.99999 12H1.26937L3.99999 5.85625V12ZM4.99999 12V5.85625L7.73062 12H4.99999ZM8.82499 12L5.26937 4H11.175L14.7306 12H8.82499Z" fill="currentColor"/></symbol>
<symbol id="sport-rollers" viewBox="0 0 16 16"><path d="M3.00488 10.7305C2.56167 10.7462 2.23333 10.9199 2.01562 11.1689C1.79715 11.4191 1.68765 11.7487 1.68945 12.0781C1.69133 12.4073 1.80385 12.7346 2.02441 12.9814C2.24459 13.2277 2.57501 13.3958 3.01758 13.4053C3.46502 13.3957 3.79663 13.2254 4.0166 12.9766C4.2373 12.7268 4.34814 12.3961 4.34668 12.0645C4.34514 11.7327 4.23189 11.4017 4.00879 11.1533C3.78643 10.9058 3.45252 10.737 3.00488 10.7305ZM7.65234 10.7305C7.21237 10.7494 6.88599 10.9238 6.66992 11.1729C6.45308 11.4229 6.34565 11.751 6.34766 12.0791C6.34972 12.4073 6.46172 12.734 6.68164 12.9805C6.90076 13.2258 7.22902 13.3936 7.66895 13.4053C9.45183 13.3635 9.43909 10.7521 7.65234 10.7305ZM12.3086 10.7305C11.8675 10.7515 11.5403 10.9263 11.3232 11.1748C11.1054 11.4243 10.9965 11.7514 10.998 12.0781C10.9997 12.4046 11.1113 12.7293 11.3311 12.9756C11.5504 13.2212 11.8798 13.3906 12.3213 13.4053C12.7687 13.3957 13.1003 13.2254 13.3203 12.9766C13.541 12.7268 13.6518 12.3961 13.6504 12.0645C13.6488 11.7327 13.5356 11.4017 13.3125 11.1533C13.0901 10.9058 12.7562 10.737 12.3086 10.7305ZM9.22363 10.7354C9.46449 11.0128 9.62486 11.3514 9.68555 11.7129H10.3037C10.3672 11.3503 10.5251 11.0135 10.7666 10.7354H9.22363ZM4.57129 10.7354C4.81225 11.0128 4.97249 11.3514 5.0332 11.7129H5.65234C5.71584 11.3504 5.87294 11.0135 6.11426 10.7354H4.57129ZM1.71191 7.02344C1.69831 7.09991 1.68884 7.21725 1.68359 7.35938C1.67768 7.51968 1.67623 7.70799 1.67676 7.89746C1.67781 8.27376 1.68597 8.65706 1.67969 8.82617L1.68652 8.95898C1.75631 9.60893 2.36099 10.0772 3.03027 10.0156H4.14551C4.25376 9.68428 4.2814 9.34131 4.24512 8.99707L4.2041 8.77441C4.08387 8.2627 3.79054 7.8055 3.37012 7.48242C2.89773 7.11952 2.30285 6.95517 1.71191 7.02344ZM2.52246 5.22949L2.52051 5.22852C2.50099 5.31694 2.45702 5.40522 2.40234 5.49219C2.34776 5.57897 2.28069 5.66812 2.21387 5.75879C2.09038 5.92634 1.96928 6.10186 1.90527 6.29297C3.83803 6.21859 5.38322 8.13699 4.8916 10.0156H12.7861V9.53711L12.7832 9.42871C12.745 8.89003 12.3948 8.42014 11.8789 8.23535L11.876 8.23438C11.8252 8.21102 11.5552 8.11164 11.1738 7.97363C10.7943 7.83627 10.3071 7.6615 9.8252 7.48535C9.34338 7.30923 8.86592 7.13197 8.50586 6.99121C8.32604 6.92091 8.17439 6.85936 8.06641 6.81152C8.01251 6.78764 7.96811 6.7661 7.93652 6.74902C7.92098 6.74061 7.90697 6.73302 7.89648 6.72559C7.89554 6.72491 7.8945 6.72433 7.89355 6.72363L6.96289 7.0293H6.96191C6.85333 7.06345 6.75491 7.04808 6.67676 7.00098C6.59956 6.95437 6.54421 6.87833 6.5166 6.79492C6.489 6.71146 6.48806 6.61739 6.52344 6.53418C6.55924 6.45008 6.63103 6.38019 6.74121 6.34375L7.27637 6.16699C7.14475 5.99815 7.03381 5.81272 6.95508 5.61328H6.38281C6.26742 5.61328 6.17741 5.56874 6.11719 5.5C6.05782 5.43211 6.0293 5.34273 6.0293 5.25488C6.02938 5.1671 6.05796 5.07804 6.11719 5.00977C6.17725 4.94059 6.26648 4.89475 6.38184 4.89355H6.78613C6.78323 4.85283 6.77878 4.79727 6.77734 4.73438C6.77516 4.63868 6.77468 4.52212 6.77441 4.40527C6.77396 4.20618 6.77592 4.00371 6.77637 3.90332H5.6709C5.47423 3.90314 5.31171 3.74061 5.31152 3.54395C5.31152 3.51551 5.30904 3.2626 5.30957 3.0166C5.30984 2.89325 5.31128 2.77021 5.31348 2.67676C5.31457 2.63033 5.31554 2.59064 5.31738 2.56152C5.31746 2.56025 5.3173 2.55886 5.31738 2.55762H2.52246V5.22949ZM6.77148 1.70312C6.34324 1.79561 6.03129 2.17606 6.03125 2.625V3.18359H6.77148V1.70312ZM7.49512 4.74219C7.4945 5.0694 7.59506 5.38883 7.78223 5.65723C7.96961 5.92575 8.23541 6.1308 8.54297 6.24316L12.124 7.55957L12.2725 7.62109C12.6136 7.77802 12.9079 8.02361 13.124 8.33301C13.3708 8.68629 13.504 9.10619 13.5059 9.53711V9.53809L13.498 10.3838C13.7201 10.5395 13.9098 10.737 14.0557 10.9658C14.1681 11.1423 14.253 11.3349 14.3076 11.5361L14.3525 11.7402V11.7422C14.4395 12.411 14.2623 12.9552 13.9375 13.3525C13.6132 13.7493 13.1431 13.9975 12.6475 14.0781C12.152 14.1586 11.6283 14.0725 11.1963 13.7979C10.771 13.5275 10.4386 13.0758 10.3066 12.4287H9.68457C9.28247 14.6671 6.05133 14.6723 5.65332 12.4287H5.0332C4.75804 14.2077 2.29756 14.7423 1.30957 13.2217V13.2207C1.15895 12.9976 1.05294 12.7471 0.999023 12.4834C0.945028 12.2191 0.943751 11.9465 0.995117 11.6816C1.04651 11.4167 1.14987 11.1645 1.29883 10.9395C1.43635 10.7317 1.61146 10.5524 1.81348 10.4072C1.28181 10.056 0.959961 9.46377 0.959961 8.82617V7.43359C0.961559 6.57763 1.26005 5.74942 1.80273 5.08789V2.19824C1.80273 2.00136 1.96524 1.83795 2.16211 1.83789H5.51953C5.82925 1.24391 6.47602 0.914928 7.13867 0.961914L7.1377 0.962891C7.2564 0.966505 7.34135 1.00699 7.39844 1.07617C7.45411 1.14368 7.47898 1.23305 7.49023 1.32422C7.5015 1.41561 7.49919 1.51448 7.49609 1.60547C7.49294 1.69821 7.48913 1.78135 7.49512 1.84668L7.49609 1.85059H7.49512V4.74219Z" fill="currentColor" stroke="currentColor" stroke-width="0.0846561"/></symbol>
<symbol id="sport-run" viewBox="0 0 16 16"><path d="M9.50054 5.5C9.8961 5.5 10.2828 5.3827 10.6117 5.16294C10.9406 4.94318 11.1969 4.63082 11.3483 4.26537C11.4997 3.89992 11.5393 3.49778 11.4621 3.10982C11.3849 2.72186 11.1945 2.36549 10.9148 2.08579C10.6351 1.80608 10.2787 1.6156 9.89072 1.53843C9.50276 1.46126 9.10063 1.50087 8.73518 1.65224C8.36972 1.80362 8.05737 2.05996 7.8376 2.38886C7.61784 2.71776 7.50054 3.10444 7.50054 3.5C7.50054 4.03043 7.71126 4.53914 8.08633 4.91421C8.4614 5.28929 8.97011 5.5 9.50054 5.5ZM9.50054 2.5C9.69832 2.5 9.89166 2.55865 10.0561 2.66853C10.2206 2.77841 10.3487 2.93459 10.4244 3.11732C10.5001 3.30004 10.5199 3.50111 10.4813 3.69509C10.4427 3.88907 10.3475 4.06726 10.2076 4.20711C10.0678 4.34696 9.88961 4.4422 9.69563 4.48079C9.50165 4.51937 9.30058 4.49957 9.11786 4.42388C8.93513 4.34819 8.77895 4.22002 8.66907 4.05557C8.55919 3.89112 8.50054 3.69778 8.50054 3.5C8.50054 3.23478 8.6059 2.98043 8.79344 2.79289C8.98097 2.60536 9.23533 2.5 9.50054 2.5ZM13.7074 8.7925C13.6693 8.81 13.2393 8.9975 12.478 8.9975C11.6124 8.9975 10.3187 8.755 8.68492 7.7475C8.43626 8.45341 8.11341 9.13096 7.72179 9.76875C8.42519 9.98529 9.08684 10.3194 9.67867 10.7569C10.8705 11.6656 11.5005 12.9594 11.5005 14.5C11.5005 14.6326 11.4479 14.7598 11.3541 14.8536C11.2603 14.9473 11.1332 15 11.0005 15C10.8679 15 10.7408 14.9473 10.647 14.8536C10.5532 14.7598 10.5005 14.6326 10.5005 14.5C10.5005 11.8938 8.33242 10.9556 7.11679 10.6344C7.08242 10.6781 7.04679 10.7225 7.01117 10.7656C5.78367 12.2531 4.24554 13.0269 2.53429 13.0269C2.33938 13.0278 2.14455 13.0188 1.95054 13C1.81793 12.9867 1.69602 12.9213 1.61163 12.8182C1.52724 12.7151 1.48728 12.5826 1.50054 12.45C1.5138 12.3174 1.5792 12.1955 1.68234 12.1111C1.78549 12.0267 1.91793 11.9867 2.05054 12C3.67054 12.1613 5.07992 11.5319 6.23804 10.125C7.01867 9.17875 7.55054 8.02438 7.81617 7.1875C5.38367 5.77188 3.82992 6.97688 3.81304 6.99C3.76211 7.03349 3.70296 7.06631 3.6391 7.0865C3.57524 7.10669 3.50798 7.11385 3.4413 7.10754C3.37462 7.10124 3.30989 7.0816 3.25094 7.0498C3.192 7.018 3.14005 6.97468 3.09817 6.92242C3.05629 6.87015 3.02534 6.81 3.00715 6.74554C2.98896 6.68109 2.98391 6.61363 2.99229 6.54718C3.00067 6.48073 3.02232 6.41665 3.05595 6.35873C3.08957 6.3008 3.13449 6.25023 3.18804 6.21C3.28179 6.135 5.51429 4.3975 8.78242 6.62063C11.6243 8.5525 13.278 7.89 13.2937 7.8825C13.3536 7.85421 13.4185 7.83811 13.4847 7.83513C13.5509 7.83214 13.617 7.84234 13.6792 7.86513C13.7414 7.88792 13.7984 7.92284 13.847 7.96786C13.8956 8.01289 13.9348 8.06712 13.9622 8.12741C13.9897 8.1877 14.0049 8.25285 14.0069 8.31906C14.009 8.38527 13.9979 8.45124 13.9742 8.51312C13.9506 8.575 13.9149 8.63156 13.8692 8.67952C13.8235 8.72749 13.7687 8.76589 13.708 8.7925H13.7074Z" fill="currentColor"/></symbol>
<symbol id="sport-ski" viewBox="0 0 16 16"><path d="M10.7509 5.5C11.097 5.5 11.4353 5.39737 11.7231 5.20507C12.0109 5.01278 12.2352 4.73947 12.3676 4.4197C12.5001 4.09993 12.5347 3.74806 12.4672 3.40859C12.3997 3.06913 12.233 2.75731 11.9883 2.51256C11.7435 2.26782 11.4317 2.10115 11.0923 2.03363C10.7528 1.9661 10.4009 2.00076 10.0812 2.13321C9.76138 2.26566 9.48807 2.48997 9.29578 2.77775C9.10349 3.06554 9.00085 3.40388 9.00085 3.75C9.00085 4.21413 9.18523 4.65925 9.51341 4.98744C9.8416 5.31563 10.2867 5.5 10.7509 5.5ZM10.7509 3C10.8992 3 11.0442 3.04399 11.1675 3.1264C11.2909 3.20881 11.387 3.32594 11.4438 3.46299C11.5005 3.60003 11.5154 3.75083 11.4864 3.89632C11.4575 4.0418 11.3861 4.17544 11.2812 4.28033C11.1763 4.38522 11.0427 4.45665 10.8972 4.48559C10.7517 4.51453 10.6009 4.49968 10.4638 4.44291C10.3268 4.38614 10.2097 4.29001 10.1272 4.16668C10.0448 4.04334 10.0009 3.89834 10.0009 3.75C10.0009 3.55109 10.0799 3.36032 10.2205 3.21967C10.3612 3.07902 10.5519 3 10.7509 3ZM2.02085 4.86C2.03924 4.79697 2.06986 4.73817 2.11097 4.68697C2.15207 4.63577 2.20286 4.59317 2.26044 4.56159C2.31801 4.53002 2.38123 4.5101 2.44651 4.50296C2.51178 4.49583 2.57782 4.50162 2.64085 4.52L7.00085 5.79188L7.64585 5.14625C7.69229 5.09976 7.74743 5.06288 7.80813 5.03772C7.86883 5.01256 7.93389 4.99961 7.9996 4.99961C8.06531 4.99961 8.13037 5.01256 8.19107 5.03772C8.25177 5.06288 8.30692 5.09976 8.35335 5.14625L10.2077 7H12.5009C12.6335 7 12.7606 7.05268 12.8544 7.14645C12.9482 7.24022 13.0009 7.36739 13.0009 7.5C13.0009 7.63261 12.9482 7.75979 12.8544 7.85355C12.7606 7.94732 12.6335 8 12.5009 8H10.0009C9.93517 8.00005 9.87012 7.98716 9.80943 7.96207C9.74873 7.93697 9.69357 7.90017 9.6471 7.85375L9.29648 7.5L2.35898 5.4775C2.23258 5.43995 2.12614 5.354 2.06281 5.23835C1.99949 5.1227 1.98441 4.98672 2.02085 4.86ZM14.7784 12.765C14.2481 13.1193 13.6467 13.353 13.0164 13.4496C12.3861 13.5463 11.7422 13.5035 11.1302 13.3244L1.36148 10.4794C1.29734 10.462 1.23731 10.432 1.18489 10.3912C1.13247 10.3503 1.08872 10.2995 1.0562 10.2415C1.02367 10.1836 1.00301 10.1197 0.995443 10.0537C0.987873 9.98771 0.993537 9.92085 1.0121 9.85705C1.03067 9.79325 1.06177 9.73379 1.10358 9.68215C1.14539 9.6305 1.19708 9.58771 1.25562 9.55627C1.31416 9.52483 1.37837 9.50537 1.44452 9.49904C1.51066 9.49271 1.57741 9.49962 1.64085 9.51938L6.39085 10.9025L8.04648 9.25L5.36335 8.48063C5.30019 8.46257 5.24121 8.43225 5.18977 8.3914C5.13833 8.35055 5.09544 8.29996 5.06355 8.24254C4.99914 8.12656 4.98345 7.98974 5.01991 7.86219C5.03797 7.79903 5.06829 7.74005 5.10914 7.68861C5.14999 7.63717 5.20058 7.59428 5.258 7.56239C5.37398 7.49798 5.5108 7.48228 5.63835 7.51875L9.13835 8.51875C9.22209 8.54266 9.29813 8.58802 9.35894 8.65035C9.41976 8.71267 9.46324 8.7898 9.48509 8.8741C9.50694 8.95839 9.50639 9.04693 9.4835 9.13095C9.46062 9.21497 9.41618 9.29156 9.3546 9.35313L7.48585 11.2219L11.4102 12.3644C11.882 12.5026 12.3784 12.5355 12.8644 12.461C13.3503 12.3865 13.814 12.2063 14.2227 11.9331C14.2773 11.8967 14.3386 11.8714 14.403 11.8586C14.4674 11.8458 14.5337 11.8459 14.5981 11.8587C14.6625 11.8716 14.7237 11.897 14.7783 11.9335C14.8329 11.97 14.8797 12.0169 14.9162 12.0716C14.9526 12.1262 14.9779 12.1875 14.9907 12.2519C15.0035 12.3163 15.0034 12.3826 14.9906 12.447C14.9777 12.5113 14.9523 12.5726 14.9158 12.6271C14.8793 12.6817 14.8323 12.7286 14.7777 12.765H14.7784Z" fill="currentColor"/></symbol>
<symbol id="sport-swim" viewBox="0 0 16 16"><path d="M10.9991 6.5C11.3946 6.5 11.7813 6.3827 12.1102 6.16294C12.4391 5.94318 12.6955 5.63082 12.8468 5.26537C12.9982 4.89992 13.0378 4.49778 12.9607 4.10982C12.8835 3.72186 12.693 3.36549 12.4133 3.08579C12.1336 2.80608 11.7772 2.6156 11.3893 2.53843C11.0013 2.46126 10.5992 2.50087 10.2337 2.65224C9.86827 2.80362 9.55591 3.05996 9.33615 3.38886C9.11639 3.71776 8.99909 4.10444 8.99909 4.5C8.99909 5.03043 9.2098 5.53914 9.58487 5.91421C9.95995 6.28929 10.4687 6.5 10.9991 6.5ZM10.9991 3.5C11.1969 3.5 11.3902 3.55865 11.5547 3.66853C11.7191 3.77841 11.8473 3.93459 11.923 4.11732C11.9987 4.30004 12.0185 4.50111 11.9799 4.69509C11.9413 4.88907 11.846 5.06726 11.7062 5.20711C11.5663 5.34696 11.3882 5.4422 11.1942 5.48079C11.0002 5.51937 10.7991 5.49957 10.6164 5.42388C10.4337 5.34819 10.2775 5.22002 10.1676 5.05557C10.0577 4.89112 9.99909 4.69778 9.99909 4.5C9.99909 4.23478 10.1044 3.98043 10.292 3.79289C10.4795 3.60536 10.7339 3.5 10.9991 3.5ZM13.8841 11.5775C13.969 11.6792 14.0101 11.8104 13.9984 11.9423C13.9867 12.0743 13.9231 12.1962 13.8216 12.2813C12.7366 13.1806 11.7678 13.5 10.8841 13.5C9.72284 13.5 8.70784 12.9488 7.76346 12.4375C6.17909 11.5775 4.81096 10.8344 2.82159 12.4838C2.77115 12.5263 2.71278 12.5584 2.64986 12.5783C2.58694 12.5982 2.5207 12.6054 2.45497 12.5996C2.38924 12.5937 2.32532 12.575 2.26689 12.5443C2.20846 12.5136 2.15667 12.4717 2.11452 12.4209C2.07237 12.3702 2.04068 12.3115 2.02129 12.2485C2.0019 12.1854 1.99519 12.1191 2.00154 12.0534C2.00789 11.9877 2.02718 11.924 2.0583 11.8658C2.08941 11.8076 2.13174 11.7561 2.18284 11.7144C4.69346 9.63375 6.57784 10.6563 8.24096 11.5588C9.82534 12.4194 11.1935 13.1619 13.1828 11.5125C13.2847 11.4286 13.4155 11.3884 13.5468 11.4006C13.6782 11.4128 13.7994 11.4764 13.8841 11.5775ZM2.17971 9.21375C2.12861 9.25551 2.08629 9.30696 2.05517 9.36515C2.02406 9.42335 2.00477 9.48712 1.99841 9.5528C1.99206 9.61848 1.99878 9.68477 2.01817 9.74785C2.03756 9.81092 2.06924 9.86954 2.11139 9.92031C2.15355 9.97108 2.20533 10.013 2.26376 10.0437C2.32219 10.0743 2.38612 10.0931 2.45185 10.099C2.51758 10.1048 2.58381 10.0976 2.64673 10.0777C2.70966 10.0578 2.76802 10.0257 2.81846 9.98313C4.80784 8.33438 6.17596 9.07688 7.76034 9.93688C8.70471 10.4494 9.71971 10.9994 10.881 10.9994C11.7647 10.9994 12.7335 10.68 13.8185 9.78063C13.8696 9.73887 13.9119 9.68741 13.943 9.62922C13.9741 9.57103 13.9934 9.50726 13.9998 9.44157C14.0061 9.37589 13.9994 9.3096 13.98 9.24653C13.9606 9.18345 13.9289 9.12484 13.8868 9.07407C13.8446 9.0233 13.7928 8.98137 13.7344 8.95071C13.676 8.92005 13.6121 8.90125 13.5463 8.89542C13.4806 8.88958 13.4144 8.8968 13.3514 8.91669C13.2885 8.93657 13.2302 8.96871 13.1797 9.01125C12.8182 9.32167 12.412 9.57579 11.9747 9.765L8.60971 6.40125C8.00735 5.79637 7.29105 5.31689 6.50224 4.99055C5.71342 4.66421 4.86774 4.49748 4.01409 4.5H2.49909C2.36648 4.5 2.2393 4.55268 2.14553 4.64645C2.05177 4.74022 1.99909 4.86739 1.99909 5C1.99909 5.13261 2.05177 5.25979 2.14553 5.35355C2.2393 5.44732 2.36648 5.5 2.49909 5.5H4.01409C4.92798 5.49825 5.82779 5.72514 6.63159 6.16L4.77971 8.01063C3.98784 8.08438 3.12846 8.4275 2.17971 9.21375ZM7.90284 7.10938L10.786 9.99188C9.91096 9.965 9.10596 9.53 8.23784 9.05875C7.56596 8.69375 6.85721 8.30875 6.08659 8.11813L7.47784 6.72688C7.6261 6.84685 7.76797 6.97452 7.90284 7.10938Z" fill="currentColor"/></symbol>
<symbol id="sport" viewBox="0 0 20 20"><path d="M10 1.875C8.39303 1.875 6.82214 2.35152 5.486 3.24431C4.14985 4.1371 3.10844 5.40605 2.49348 6.8907C1.87852 8.37535 1.71762 10.009 2.03112 11.5851C2.34463 13.1612 3.11846 14.6089 4.25476 15.7452C5.39106 16.8815 6.8388 17.6554 8.4149 17.9689C9.99099 18.2824 11.6247 18.1215 13.1093 17.5065C14.594 16.8916 15.8629 15.8502 16.7557 14.514C17.6485 13.1779 18.125 11.607 18.125 10C18.1227 7.84581 17.266 5.78051 15.7427 4.25727C14.2195 2.73403 12.1542 1.87727 10 1.875ZM16.8461 9.375H14.1695C14.1656 8.21598 13.9142 7.07116 13.4322 6.01715C12.9501 4.96314 12.2485 4.02424 11.3742 3.26328C12.821 3.56082 14.1338 4.31547 15.119 5.4159C16.1042 6.51633 16.7097 7.90428 16.8461 9.375ZM3.47891 12.1773C3.01094 10.7761 3.00703 9.2614 3.46777 7.85779C3.92851 6.45418 4.82936 5.23644 6.03672 4.38516L7.37422 6.70156C6.37239 7.28419 5.5066 8.07413 4.83481 9.0185C4.16302 9.96286 3.70074 11.0398 3.47891 12.1773ZM4.60157 14.2523C4.5028 12.9639 4.76916 11.6737 5.37011 10.5297C5.97106 9.38567 6.88226 8.4342 7.99922 7.78438L9.27813 10L6.03672 15.6148C5.49556 15.2317 5.01224 14.7729 4.60157 14.2523ZM16.3859 12.5453C15.3195 13.2764 14.0684 13.6919 12.7765 13.7441C11.4845 13.7964 10.2041 13.4832 9.08204 12.8406L10.3609 10.625H16.8453C16.7863 11.284 16.6316 11.9309 16.3859 12.5453Z" fill="currentColor"/></symbol>
<symbol id="travel" viewBox="0 0 20 20"><path d="M17.8844 3.88212C17.8095 3.82378 17.7223 3.78326 17.6295 3.76364C17.5366 3.74401 17.4405 3.74579 17.3484 3.76884L12.5727 4.96259L7.77969 2.56571C7.64614 2.4991 7.49317 2.48248 7.34844 2.51884L2.34844 3.76884C2.21323 3.80264 2.09319 3.88066 2.00741 3.9905C1.92163 4.10035 1.87502 4.23572 1.875 4.37509V15.6251C1.87501 15.7201 1.89667 15.8138 1.93833 15.8991C1.97998 15.9845 2.04054 16.0592 2.1154 16.1176C2.19025 16.1761 2.27745 16.2167 2.37035 16.2364C2.46326 16.2561 2.55943 16.2544 2.65156 16.2313L7.42734 15.0376L12.2203 17.4345C12.3073 17.4774 12.403 17.4998 12.5 17.5001C12.5511 17.5001 12.602 17.4938 12.6516 17.4813L17.6516 16.2313C17.7868 16.1975 17.9068 16.1195 17.9926 16.0097C18.0784 15.8998 18.125 15.7645 18.125 15.6251V4.37509C18.125 4.28003 18.1034 4.18622 18.0617 4.10079C18.02 4.01537 17.9593 3.94058 17.8844 3.88212ZM7.5 13.7501C7.4489 13.7501 7.398 13.7564 7.34844 13.7688L3.125 14.8243V4.86337L7.42734 3.78759L7.5 3.82352V13.7501ZM16.875 15.1368L12.5727 16.2126L12.5 16.1766V6.25009C12.5511 6.25031 12.602 6.24428 12.6516 6.23212L16.875 5.17587V15.1368Z" fill="currentColor"/></symbol>
</svg>