<svg xmlns="http://www.w3.org/2000/svg" style="display:none">
<symbol id="arrow-left" viewBox="0 0 24 24"><path d="M19 12H5"/><path d="M12 19l-7-7 7-7"/></symbol>
<symbol id="camera-off" viewBox="0 0 24 24"><path d="M3 5L21 19" stroke="currentColor" stroke-width="1.8" stroke-linecap="round"/><path d="M9.5 6L10.4 4.8C10.7 4.4 11.2 4 11.8 4H14.2C14.8 4 15.3 4.4 15.6 4.8L16.5 6H18C19.1 6 20 6.9 20 8V14.5" stroke="currentColor" stroke-width="1.8" stroke-linecap="round" stroke-linejoin="round"/><path d="M7.8 6H6C4.9 6 4 6.9 4 8V16C4 17.1 4.9 18 6 18H18C19.1 18 20 17.1 20 16V16.2" stroke="currentColor" stroke-width="1.8" stroke-linecap="round" stroke-linejoin="round"/><path d="M10.1 10.2C10.6 9.75 11.25 9.5 12 9.5C13.65 9.5 15 10.85 15 12.5C15 13.25 14.75 13.9 14.3 14.4" stroke="currentColor" stroke-width="1.8" stroke-linecap="round"/><path d="M9.1 13.7C9.04 13.44 9 13.17 9 12.9C9 12.2 9.23 11.55 9.63 11.02" stroke="currentColor" stroke-width="1.8" stroke-linecap="round"/></symbol>
<symbol id="caret-left" viewBox="0 0 20 20"><path d="M12.9422 15.8078C13.0003 15.8659 13.0463 15.9348 13.0777 16.0107C13.1092 16.0865 13.1254 16.1679 13.1254 16.25C13.1254 16.3321 13.1092 16.4134 13.0777 16.4893C13.0463 16.5652 13.0003 16.6341 12.9422 16.6922C12.8841 16.7502 12.8152 16.7963 12.7393 16.8277C12.6634 16.8592 12.5821 16.8753 12.5 16.8753C12.4179 16.8753 12.3366 16.8592 12.2607 16.8277C12.1848 16.7963 12.1159 16.7502 12.0578 16.6922L5.80782 10.4422C5.74971 10.3841 5.70361 10.3152 5.67215 10.2393C5.6407 10.1634 5.62451 10.0821 5.62451 9.99998C5.62451 9.91785 5.6407 9.83652 5.67215 9.76064C5.70361 9.68477 5.74971 9.61584 5.80782 9.55779L12.0578 3.30779C12.1751 3.19052 12.3342 3.12463 12.5 3.12463C12.6659 3.12463 12.8249 3.19052 12.9422 3.30779C13.0595 3.42507 13.1254 3.58413 13.1254 3.74998C13.1254 3.91583 13.0595 4.07489 12.9422 4.19217L7.1336 9.99998L12.9422 15.8078Z" fill="currentColor"/></symbol>
<symbol id="caret-right" viewBox="0 0 20 20"><path d="M14.192 10.4422L7.94205 16.6922C7.88398 16.7502 7.81504 16.7963 7.73917 16.8277C7.6633 16.8592 7.58198 16.8753 7.49986 16.8753C7.41774 16.8753 7.33642 16.8592 7.26055 16.8277C7.18468 16.7963 7.11574 16.7502 7.05767 16.6922C6.9996 16.6341 6.95354 16.5652 6.92211 16.4893C6.89069 16.4134 6.87451 16.3321 6.87451 16.25C6.87451 16.1679 6.89069 16.0865 6.92211 16.0107C6.95354 15.9348 6.9996 15.8659 7.05767 15.8078L12.8663 9.99998L7.05767 4.19217C6.9404 4.07489 6.87451 3.91583 6.87451 3.74998C6.87451 3.58413 6.9404 3.42507 7.05767 3.30779C7.17495 3.19052 7.33401 3.12463 7.49986 3.12463C7.66571 3.12463 7.82477 3.19052 7.94205 3.30779L14.192 9.55779C14.2502 9.61584 14.2963 9.68477 14.3277 9.76064C14.3592 9.83652 14.3754 9.91785 14.3754 9.99998C14.3754 10.0821 14.3592 10.1634 14.3277 10.2393C14.2963 10.3152 14.2502 10.3841 14.192 10.4422Z" fill="currentColor"/></symbol>
<symbol id="check-circle" viewBox="0 0 13 13"><path d="M6.5 0C5.21442 0 3.95772 0.381218 2.8888 1.09545C1.81988 1.80968 0.986756 2.82484 0.494786 4.01256C0.00281635 5.20028 -0.125905 6.50721 0.124899 7.76809C0.375703 9.02896 0.994767 10.1872 1.90381 11.0962C2.81285 12.0052 3.97104 12.6243 5.23192 12.8751C6.49279 13.1259 7.79973 12.9972 8.98744 12.5052C10.1752 12.0132 11.1903 11.1801 11.9046 10.1112C12.6188 9.04229 13 7.78558 13 6.5C12.9982 4.77665 12.3128 3.12441 11.0942 1.90582C9.8756 0.687224 8.22335 0.00181989 6.5 0ZM9.35375 5.35375L5.85375 8.85375C5.80732 8.90024 5.75217 8.93712 5.69147 8.96228C5.63077 8.98744 5.56571 9.00039 5.5 9.00039C5.4343 9.00039 5.36923 8.98744 5.30853 8.96228C5.24783 8.93712 5.19269 8.90024 5.14625 8.85375L3.64625 7.35375C3.55243 7.25993 3.49972 7.13268 3.49972 7C3.49972 6.86732 3.55243 6.74007 3.64625 6.64625C3.74007 6.55243 3.86732 6.49972 4 6.49972C4.13268 6.49972 4.25993 6.55243 4.35375 6.64625L5.5 7.79313L8.64625 4.64625C8.69271 4.59979 8.74786 4.56294 8.80855 4.5378C8.86925 4.51266 8.93431 4.49972 9 4.49972C9.0657 4.49972 9.13075 4.51266 9.19145 4.5378C9.25215 4.56294 9.3073 4.59979 9.35375 4.64625C9.40021 4.6927 9.43706 4.74786 9.4622 4.80855C9.48734 4.86925 9.50028 4.9343 9.50028 5C9.50028 5.0657 9.48734 5.13075 9.4622 5.19145C9.43706 5.25214 9.40021 5.3073 9.35375 5.35375Z" fill="#343A40"/></symbol>
<symbol id="check" viewBox="0 0 24 24"><path d="M5 12l5 5L20 7"/></symbol>
<symbol id="close" viewBox="0 0 20 20"><path d="M16.0673 15.1829C16.1254 15.241 16.1714 15.3099 16.2028 15.3858C16.2343 15.4617 16.2505 15.543 16.2505 15.6251C16.2505 15.7072 16.2343 15.7885 16.2028 15.8644C16.1714 15.9403 16.1254 16.0092 16.0673 16.0673C16.0092 16.1254 15.9403 16.1714 15.8644 16.2028C15.7885 16.2343 15.7072 16.2505 15.6251 16.2505C15.543 16.2505 15.4617 16.2343 15.3858 16.2028C15.3099 16.1714 15.241 16.1254 15.1829 16.0673L10.0001 10.8837L4.81729 16.0673C4.70002 16.1846 4.54096 16.2505 4.3751 16.2505C4.20925 16.2505 4.05019 16.1846 3.93292 16.0673C3.81564 15.95 3.74976 15.791 3.74976 15.6251C3.74976 15.4593 3.81564 15.3002 3.93292 15.1829L9.11651 10.0001L3.93292 4.81729C3.81564 4.70002 3.74976 4.54096 3.74976 4.3751C3.74976 4.20925 3.81564 4.05019 3.93292 3.93292C4.05019 3.81564 4.20925 3.74976 4.3751 3.74976C4.54096 3.74976 4.70002 3.81564 4.81729 3.93292L10.0001 9.11651L15.1829 3.93292C15.3002 3.81564 15.4593 3.74976 15.6251 3.74976C15.791 3.74976 15.95 3.81564 16.0673 3.93292C16.1846 4.05019 16.2505 4.20925 16.2505 4.3751C16.2505 4.54096 16.1846 4.70002 16.0673 4.81729L10.8837 10.0001L16.0673 15.1829Z" fill="currentColor"/></symbol>
<symbol id="filter-line" viewBox="0 0 16 16"><path d="M2.5 5.50002H4.5625C4.67265 5.93022 4.92285 6.31153 5.27365 6.58384C5.62446 6.85614 6.05591 7.00394 6.5 7.00394C6.94409 7.00394 7.37554 6.85614 7.72635 6.58384C8.07715 6.31153 8.32735 5.93022 8.4375 5.50002H13.5C13.6326 5.50002 13.7598 5.44734 13.8536 5.35357C13.9473 5.2598 14 5.13262 14 5.00002C14 4.86741 13.9473 4.74023 13.8536 4.64646C13.7598 4.55269 13.6326 4.50002 13.5 4.50002H8.4375C8.32735 4.06981 8.07715 3.6885 7.72635 3.4162C7.37554 3.14389 6.94409 2.99609 6.5 2.99609C6.05591 2.99609 5.62446 3.14389 5.27365 3.4162C4.92285 3.6885 4.67265 4.06981 4.5625 4.50002H2.5C2.36739 4.50002 2.24021 4.55269 2.14645 4.64646C2.05268 4.74023 2 4.86741 2 5.00002C2 5.13262 2.05268 5.2598 2.14645 5.35357C2.24021 5.44734 2.36739 5.50002 2.5 5.50002ZM6.5 4.00002C6.69778 4.00002 6.89112 4.05866 7.05557 4.16855C7.22002 4.27843 7.34819 4.43461 7.42388 4.61733C7.49957 4.80006 7.51937 5.00112 7.48079 5.19511C7.4422 5.38909 7.34696 5.56727 7.20711 5.70712C7.06725 5.84697 6.88907 5.94222 6.69509 5.9808C6.50111 6.01939 6.30004 5.99958 6.11732 5.9239C5.93459 5.84821 5.77841 5.72003 5.66853 5.55559C5.55865 5.39114 5.5 5.1978 5.5 5.00002C5.5 4.7348 5.60536 4.48045 5.79289 4.29291C5.98043 4.10537 6.23478 4.00002 6.5 4.00002ZM13.5 10.5H12.4375C12.3273 10.0698 12.0771 9.6885 11.7263 9.4162C11.3755 9.1439 10.9441 8.99609 10.5 8.99609C10.0559 8.99609 9.62446 9.1439 9.27365 9.4162C8.92285 9.6885 8.67265 10.0698 8.5625 10.5H2.5C2.36739 10.5 2.24021 10.5527 2.14645 10.6465C2.05268 10.7402 2 10.8674 2 11C2 11.1326 2.05268 11.2598 2.14645 11.3536C2.24021 11.4473 2.36739 11.5 2.5 11.5H8.5625C8.67265 11.9302 8.92285 12.3115 9.27365 12.5838C9.62446 12.8561 10.0559 13.0039 10.5 13.0039C10.9441 13.0039 11.3755 12.8561 11.7263 12.5838C12.0771 12.3115 12.3273 11.9302 12.4375 11.5H13.5C13.6326 11.5 13.7598 11.4473 13.8536 11.3536C13.9473 11.2598 14 11.1326 14 11C14 10.8674 13.9473 10.7402 13.8536 10.6465C13.7598 10.5527 13.6326 10.5 13.5 10.5ZM10.5 12C10.3022 12 10.1089 11.9414 9.94443 11.8315C9.77998 11.7216 9.65181 11.5654 9.57612 11.3827C9.50043 11.2 9.48063 10.9989 9.51921 10.8049C9.5578 10.6109 9.65304 10.4328 9.79289 10.2929C9.93275 10.1531 10.1109 10.0578 10.3049 10.0192C10.4989 9.98064 10.7 10.0004 10.8827 10.0761C11.0654 10.1518 11.2216 10.28 11.3315 10.4444C11.4414 10.6089 11.5 10.8022 11.5 11C11.5 11.2652 11.3946 11.5196 11.2071 11.7071C11.0196 11.8947 10.7652 12 10.5 12Z" fill="currentColor"/></symbol>
<symbol id="filter" viewBox="0 0 16 16"><path d="M2 4h12M2 8h12M2 12h12" stroke="currentColor" stroke-width="1.5" stroke-linecap="round"/></symbol>
<symbol id="location" viewBox="0 0 16 16"><path d="M12.5 14H9.40875C9.92803 13.5363 10.4177 13.0406 10.875 12.5156C12.5906 10.5425 13.5 8.4625 13.5 6.5C13.5 5.04131 12.9205 3.64236 11.8891 2.61091C10.8576 1.57946 9.45869 1 8 1C6.54131 1 5.14236 1.57946 4.11091 2.61091C3.07946 3.64236 2.5 5.04131 2.5 6.5C2.5 8.4625 3.40688 10.5425 5.125 12.5156C5.58226 13.0406 6.07197 13.5363 6.59125 14H3.5C3.36739 14 3.24021 14.0527 3.14645 14.1464C3.05268 14.2402 3 14.3674 3 14.5C3 14.6326 3.05268 14.7598 3.14645 14.8536C3.24021 14.9473 3.36739 15 3.5 15H12.5C12.6326 15 12.7598 14.9473 12.8536 14.8536C12.9473 14.7598 13 14.6326 13 14.5C13 14.3674 12.9473 14.2402 12.8536 14.1464C12.7598 14.0527 12.6326 14 12.5 14ZM3.5 6.5C3.5 5.30653 3.97411 4.16193 4.81802 3.31802C5.66193 2.47411 6.80653 2 8 2C9.19347 2 10.3381 2.47411 11.182 3.31802C12.0259 4.16193 12.5 5.30653 12.5 6.5C12.5 10.0769 9.03312 13.0625 8 13.875C6.96688 13.0625 3.5 10.0769 3.5 6.5ZM10.5 6.5C10.5 6.00555 10.3534 5.5222 10.0787 5.11107C9.80397 4.69995 9.41352 4.37952 8.95671 4.1903C8.49989 4.00108 7.99723 3.95157 7.51227 4.04804C7.02732 4.1445 6.58186 4.3826 6.23223 4.73223C5.8826 5.08186 5.6445 5.52732 5.54804 6.01227C5.45157 6.49723 5.50108 6.99989 5.6903 7.45671C5.87952 7.91352 6.19995 8.30397 6.61107 8.57867C7.0222 8.85338 7.50555 9 8 9C8.66304 9 9.29893 8.73661 9.76777 8.26777C10.2366 7.79893 10.5 7.16304 10.5 6.5ZM6.5 6.5C6.5 6.20333 6.58797 5.91332 6.7528 5.66664C6.91762 5.41997 7.15189 5.22771 7.42597 5.11418C7.70006 5.00065 8.00166 4.97094 8.29264 5.02882C8.58361 5.0867 8.85088 5.22956 9.06066 5.43934C9.27044 5.64912 9.4133 5.91639 9.47118 6.20736C9.52906 6.49834 9.49935 6.79994 9.38582 7.07403C9.27229 7.34811 9.08003 7.58238 8.83335 7.7472C8.58668 7.91203 8.29667 8 8 8C7.60218 8 7.22064 7.84196 6.93934 7.56066C6.65804 7.27936 6.5 6.89782 6.5 6.5Z" fill="currentColor"/></symbol>
<symbol id="project" viewBox="0 0 20 20"><path d="M18.0637 4.64375L11.8137 17.7688C11.7796 17.8449 11.7308 17.9134 11.6699 17.9703C11.609 18.0272 11.5373 18.0714 11.4591 18.1002C11.3809 18.129 11.2977 18.1419 11.2144 18.1381C11.1311 18.1343 11.0495 18.1138 10.9742 18.078C10.899 18.0421 10.8316 17.9916 10.7762 17.9293C10.7208 17.8671 10.6784 17.7943 10.6515 17.7154C10.6246 17.6365 10.6137 17.5531 10.6196 17.4699C10.6254 17.3867 10.6478 17.3056 10.6855 17.2312L12.9387 12.5H2.49959C2.37803 12.5001 2.2591 12.4647 2.15734 12.3982C2.05558 12.3317 1.97542 12.237 1.92666 12.1257C1.87791 12.0143 1.86269 11.8912 1.88286 11.7713C1.90302 11.6514 1.95771 11.54 2.04021 11.4508L5.36521 7.84922L2.07693 4.83594C1.984 4.75084 1.91897 4.63965 1.89035 4.51694C1.86174 4.39423 1.87088 4.26573 1.91658 4.14831C1.96229 4.03089 2.04241 3.93002 2.14645 3.85894C2.25049 3.78786 2.37359 3.74989 2.49959 3.75H17.4996C17.6051 3.75003 17.7089 3.77678 17.8013 3.82773C17.8936 3.87869 17.9716 3.95221 18.0279 4.04143C18.0842 4.13065 18.117 4.23267 18.1233 4.33799C18.1295 4.44331 18.109 4.5485 18.0637 4.64375Z" fill="currentColor"/></symbol>
<symbol id="search" viewBox="0 0 16 16"><path d="M14.3536 13.6461L11.2243 10.5174C12.1313 9.42846 12.5836 8.03177 12.487 6.61786C12.3905 5.20395 11.7526 3.88168 10.706 2.92613C9.65938 1.97058 8.28468 1.45531 6.86784 1.48751C5.451 1.51971 4.10112 2.0969 3.09901 3.09901C2.0969 4.10112 1.51971 5.451 1.48751 6.86784C1.45531 8.28468 1.97058 9.65938 2.92613 10.706C3.88168 11.7526 5.20395 12.3905 6.61786 12.487C8.03177 12.5836 9.42846 12.1313 10.5174 11.2243L13.6461 14.3536C13.6926 14.4001 13.7478 14.437 13.8085 14.4621C13.8691 14.4872 13.9342 14.5002 13.9999 14.5002C14.0656 14.5002 14.1307 14.4872 14.1913 14.4621C14.252 14.437 14.3072 14.4001 14.3536 14.3536C14.4001 14.3072 14.437 14.252 14.4621 14.1913C14.4872 14.1307 14.5002 14.0656 14.5002 13.9999C14.5002 13.9342 14.4872 13.8691 14.4621 13.8085C14.437 13.7478 14.4001 13.6926 14.3536 13.6461ZM2.4999 6.9999C2.4999 6.10988 2.76382 5.23985 3.25829 4.49983C3.75275 3.75981 4.45556 3.18303 5.27782 2.84244C6.10009 2.50185 7.00489 2.41273 7.8778 2.58636C8.75072 2.76 9.55254 3.18858 10.1819 3.81792C10.8112 4.44725 11.2398 5.24908 11.4134 6.12199C11.5871 6.99491 11.498 7.89971 11.1574 8.72197C10.8168 9.54424 10.24 10.247 9.49996 10.7415C8.75994 11.236 7.88991 11.4999 6.9999 11.4999C5.80683 11.4986 4.66301 11.024 3.81938 10.1804C2.97575 9.33679 2.50122 8.19297 2.4999 6.9999Z" fill="currentColor"/></symbol>
<symbol id="sport-bike" viewBox="0 0 16 16"><path d="M5.1 11.3a2.1 2.1 0 1 1-4.2 0 2.1 2.1 0 0 1 4.2 0ZM15.1 11.3a2.1 2.1 0 1 1-4.2 0 2.1 2.1 0 0 1 4.2 0ZM5.1 11.3l2.35-4.25 2.95 4.25M7.45 7.05h3.05l1.55 4.25M6.45 5.05h2.15M10.2 3.2a1.1 1.1 0 1 0 0-.01M8.2 4.95l2.3 1.25 1.35-.85" stroke="currentColor" stroke-width="1.1" stroke-linecap="round" stroke-linejoin="round"/></symbol>
<symbol id="sport-climb" viewBox="0 0 16 16"><path d="M3.2 13.2c1.45-1.1 2.25-1.95 2.4-2.55.22-.92-.55-1.65.2-2.65.75-1 2-.7 2.8-1.45.55-.5.85-1.55.9-3.15M8.1 3.6h2.95v2.95M7.4 12.9h5.35M10.3 10.25h2.75M3.3 5.35h2.45" stroke="currentColor" stroke-width="1.1" stroke-linecap="round" stroke-linejoin="round"/></symbol>
<symbol id="sport-cross-hike" viewBox="0 0 16 16"><path d="M9.5 2.7a1.2 1.2 0 1 0 0-.01M7.2 6.7l1.55-1.45 1.65.95.85 2.1M8.75 5.25 8.1 8.7l1.8 1.4.95 3.15M7.55 8.75 5.75 10.2 3.7 10.65M5.95 6.35 4.7 8.15M6.65 10.15 5.2 13.25M12.2 7.05v6.3" stroke="currentColor" stroke-width="1.15" stroke-linecap="round" stroke-linejoin="round"/></symbol>
<symbol id="sport-hike" viewBox="0 0 16 16"><path d="M1.4 13.1 6.3 4.25l2.25 4.05 1.2-1.9 4.85 6.7H1.4ZM5.15 6.35l1.15 1.2 1.1-1.1M8.65 8.45l1.25 1.15 1.35-1.3" stroke="currentColor" stroke-width="1.1" stroke-linecap="round" stroke-linejoin="round"/></symbol>
<symbol id="sport-rollers" viewBox="0 0 16 16"><path d="M5.1 2.5h4.25l.5 5.35h2.05c.9 0 1.65.73 1.65 1.63v1.27H4.2L3.15 5.55A2.55 2.55 0 0 1 5.1 2.5ZM5.2 10.75v1.05M8 10.75v1.05M10.8 10.75v1.05M5.2 13.35h5.6" stroke="currentColor" stroke-width="1.1" stroke-linecap="round" stroke-linejoin="round"/></symbol>
<symbol id="sport-run" viewBox="0 0 16 16"><path d="M9.5 2.75a1.25 1.25 0 1 0 0-.01M6.4 7.15l1.85-1.9 2.05 1.15 1.7 1.9M8.25 5.25 7.6 8.45l2.15 1.35 1.2 3.2M6.95 8.65 5.3 10.3l-2.05.45M7.95 9.95l-2.2 3.05" stroke="currentColor" stroke-width="1.15" stroke-linecap="round" stroke-linejoin="round"/></symbol>
<symbol id="sport-ski" viewBox="0 0 16 16"><path d="M9.4 2.7a1.15 1.15 0 1 0 0-.01M7.2 6.35l1.55-1.2 1.7 1.2 1.05 2.45M8.75 5.15 8 8.25l1.9 1.45 1 2.35M7.75 8.4 5.95 10.2M3.1 13.35c2.5.85 5.6 1.05 9.8.2M4.7 12.1l7.3 1.3M3.6 5.4l1.8 8.2M12.8 5.4l-1.2 8.4" stroke="currentColor" stroke-width="1.1" stroke-linecap="round" stroke-linejoin="round"/></symbol>
<symbol id="sport-swim" viewBox="0 0 16 16"><path d="M10.1 3.4a1.25 1.25 0 1 0 0-.01M4.3 7.9l2.05-1.65 2.6 1.1 2.15-1.55M2.4 10.2c1.35 0 1.35.8 2.7.8s1.35-.8 2.7-.8 1.35.8 2.7.8 1.35-.8 2.7-.8M2.4 12.8c1.35 0 1.35.8 2.7.8s1.35-.8 2.7-.8 1.35.8 2.7.8 1.35-.8 2.7-.8" stroke="currentColor" stroke-width="1.15" stroke-linecap="round" stroke-linejoin="round"/></symbol>
<symbol id="sport" viewBox="0 0 20 20"><path d="M10 1.875C8.39303 1.875 6.82214 2.35152 5.486 3.24431C4.14985 4.1371 3.10844 5.40605 2.49348 6.8907C1.87852 8.37535 1.71762 10.009 2.03112 11.5851C2.34463 13.1612 3.11846 14.6089 4.25476 15.7452C5.39106 16.8815 6.8388 17.6554 8.4149 17.9689C9.99099 18.2824 11.6247 18.1215 13.1093 17.5065C14.594 16.8916 15.8629 15.8502 16.7557 14.514C17.6485 13.1779 18.125 11.607 18.125 10C18.1227 7.84581 17.266 5.78051 15.7427 4.25727C14.2195 2.73403 12.1542 1.87727 10 1.875ZM16.8461 9.375H14.1695C14.1656 8.21598 13.9142 7.07116 13.4322 6.01715C12.9501 4.96314 12.2485 4.02424 11.3742 3.26328C12.821 3.56082 14.1338 4.31547 15.119 5.4159C16.1042 6.51633 16.7097 7.90428 16.8461 9.375ZM3.47891 12.1773C3.01094 10.7761 3.00703 9.2614 3.46777 7.85779C3.92851 6.45418 4.82936 5.23644 6.03672 4.38516L7.37422 6.70156C6.37239 7.28419 5.5066 8.07413 4.83481 9.0185C4.16302 9.96286 3.70074 11.0398 3.47891 12.1773ZM4.60157 14.2523C4.5028 12.9639 4.76916 11.6737 5.37011 10.5297C5.97106 9.38567 6.88226 8.4342 7.99922 7.78438L9.27813 10L6.03672 15.6148C5.49556 15.2317 5.01224 14.7729 4.60157 14.2523ZM16.3859 12.5453C15.3195 13.2764 14.0684 13.6919 12.7765 13.7441C11.4845 13.7964 10.2041 13.4832 9.08204 12.8406L10.3609 10.625H16.8453C16.7863 11.284 16.6316 11.9309 16.3859 12.5453Z" fill="currentColor"/></symbol>
<symbol id="travel" viewBox="0 0 20 20"><path d="M17.8844 3.88212C17.8095 3.82378 17.7223 3.78326 17.6295 3.76364C17.5366 3.74401 17.4405 3.74579 17.3484 3.76884L12.5727 4.96259L7.77969 2.56571C7.64614 2.4991 7.49317 2.48248 7.34844 2.51884L2.34844 3.76884C2.21323 3.80264 2.09319 3.88066 2.00741 3.9905C1.92163 4.10035 1.87502 4.23572 1.875 4.37509V15.6251C1.87501 15.7201 1.89667 15.8138 1.93833 15.8991C1.97998 15.9845 2.04054 16.0592 2.1154 16.1176C2.19025 16.1761 2.27745 16.2167 2.37035 16.2364C2.46326 16.2561 2.55943 16.2544 2.65156 16.2313L7.42734 15.0376L12.2203 17.4345C12.3073 17.4774 12.403 17.4998 12.5 17.5001C12.5511 17.5001 12.602 17.4938 12.6516 17.4813L17.6516 16.2313C17.7868 16.1975 17.9068 16.1195 17.9926 16.0097C18.0784 15.8998 18.125 15.7645 18.125 15.6251V4.37509C18.125 4.28003 18.1034 4.18622 18.0617 4.10079C18.02 4.01537 17.9593 3.94058 17.8844 3.88212ZM7.5 13.7501C7.4489 13.7501 7.398 13.7564 7.34844 13.7688L3.125 14.8243V4.86337L7.42734 3.78759L7.5 3.82352V13.7501ZM16.875 15.1368L12.5727 16.2126L12.5 16.1766V6.25009C12.5511 6.25031 12.602 6.24428 12.6516 6.23212L16.875 5.17587V15.1368Z" fill="currentColor"/></symbol>
</svg>